<?xml version="1.0" encoding="UTF-8"?>
<svg width="222.01mm" height="62.662mm" version="1.1" viewBox="0 0 222.01 62.662" xmlns="http://www.w3.org/2000/svg" xmlns:cc="http://creativecommons.org/ns#" xmlns:dc="http://purl.org/dc/elements/1.1/" xmlns:rdf="http://www.w3.org/1999/02/22-rdf-syntax-ns#">
<metadata>
<rdf:RDF>
<cc:Work rdf:about="">
<dc:format>image/svg+xml</dc:format>
<dc:type rdf:resource="http://purl.org/dc/dcmitype/StillImage"/>
<dc:title/>
</cc:Work>
</rdf:RDF>
</metadata>
<g transform="translate(273.28 85.463)">
<path d="m-236.55-85.186c-0.8202 0.17026-1.7304 0.23236-2.0229 0.13807-0.7249-0.23386-15.216 3.642-15.907 4.2545-0.3038 0.26944 0.399 0.15482 1.5619-0.25468 1.8293-0.64419 1.9824-0.65322 1.1359-0.067-1.762 1.2201 0.8718 2.0815 2.9835 0.97577 0.8892-0.4656 4.638-1.5181 5.4281-1.524 0.1842-2e-3 0.3387 0.25694 0.3433 0.57404 0.01 0.32375-1.1496 0.75712-2.6324 0.98836-1.4524 0.22647-3.7506 0.87703-5.1073 1.4457-1.3566 0.56867-2.8019 1.0364-3.2118 1.0395-0.4099 3e-3 -0.9116 0.15305-1.115 0.33336-0.2034 0.1803 0.6937 0.27032 1.9933 0.20005 1.2996-0.0703 1.7778-0.0283 1.0627 0.0939-0.7151 0.12187-1.1168 0.37753-0.8927 0.5681 0.2242 0.19053 0.8947 0.2422 1.4901 0.11487 0.5953-0.12743 1.0852-0.034 1.0887 0.20763 0 0.24159-0.3461 0.44189-0.7768 0.4451-0.4308 3e-3 -0.575 0.18287-0.3205 0.39923 0.2774 0.23585-0.813 0.42882-2.723 0.48185-3.0814 0.0855-3.0523 0.0957 0.8853 0.30829l4.0713 0.21987-3.3153 0.91107c-3.1564 0.86742-3.0626 0.92999 0.4645 0.31003 1.2936-0.22737 1.5521-0.11807 1.4884 0.62891-0.042 0.49724-0.4081 1.0378-0.8125 1.2012-0.436 0.1761-0.2835 0.30926 0.3745 0.32706 0.6105 0.0165 0.1151 0.28278-1.1009 0.59166-1.2376 0.31442-1.6758 0.56552-0.9954 0.57046 0.6684 5e-3 1.4108 0.27525 1.6496 0.60087 0.2778 0.37858 1.4205 0.58468 3.1693 0.57165 3.8892-0.029 2.7265 0.33635-1.9404 0.60973-2.1713 0.12718-4.0674 0.29688-4.2137 0.37709-0.1462 0.0801 1.4943 0.26821 3.6458 0.41779l3.9117 0.27198-2.535 0.39629c-1.9257 0.30104-2.2787 0.48102-1.4685 0.74872 0.7483 0.24727 0.184 0.36916-1.8912 0.40847-2.3346 0.0442-2.6451 0.12563-1.4737 0.38602 0.8162 0.18149 2.8155 0.33893 4.4429 0.34988 2.9442 0.0198 2.9498 0.0228 1.1181 0.60075-1.7783 0.56119-1.7857 0.58095-0.2202 0.58285 0.8913 7.41e-4 1.8237-0.17811 2.0719-0.39822 0.5544-0.49159 3.3204-0.55439 3.3273-0.0756 0.01 0.5343-6.0248 0.98268-6.9173 0.51415-1.2731-0.66841-2.22-0.44842-1.1133 0.25867 0.9258 0.59142 0.8103 0.63325-1.1975 0.43357-1.2222-0.12152-2.8894-0.33014-3.7049-0.46356-1.197-0.1958-1.1561-0.14016 0.2121 0.28888 0.9323 0.29232 1.5222 0.62627 1.3108 0.74216-0.2113 0.11586 0.6104 0.12488 1.8262 0.02 1.6756-0.14464 2.2127-0.0359 2.2198 0.44947 0.01 0.35215 0.4253 0.63989 0.9338 0.63942 0.6695-5.29e-4 0.6447 0.0969-0.09 0.35316-0.5664 0.19766-0.7652 0.56569-0.4502 0.83341 0.7514 0.63868-3.4195 0.22241-7.2197-0.72055-1.531-0.3799-2.7829-0.63928-2.782-0.57642 9e-4 0.0628 1.4244 0.67862 3.1632 1.3683 1.7389 0.68971 2.4942 1.1307 1.6784 0.97992-0.8158-0.15079-2.4514-0.33594-3.6347-0.41148-1.1832-0.0755-2.9371-0.52474-3.8975-0.99821-2.4656-1.2156-2.2757-0.0727 0.2149 1.2923 1.8758 1.0282 1.9171 1.9312 0.088 1.9322-0.5895-6.1e-5 -0.5505-0.11484 0.1177-0.34811 0.7907-0.27607 0.8039-0.4114 0.063-0.65028-0.5543-0.17882-1.286-0.0389-1.7965 0.34355-0.7887 0.59085-0.9797 0.58903-2.2673-0.0217-1.3749-0.65216-1.3754-0.64761-0.025 0.20636 0.7597 0.48027 1.6453 0.78326 1.968 0.67331 0.3228-0.10995 0.7999-0.0195 1.0604 0.20268 1.0941 0.92998-2.0109 0.83368-4.4432-0.13781-2.0624-0.82378-2.5943-0.9056-2.5869-0.39813 0.01 0.35135-0.3252 0.53095-0.7339 0.39909-1.1258-0.36315-0.8669 1.51 0.3917 2.8337 0.6089 0.64045 1.9435 1.5768 2.9658 2.0808 1.0222 0.50397 1.652 1.1151 1.3994 1.3581-0.2525 0.243-0.1918 0.30908 0.1349 0.14688 0.3268-0.1622 1.8858 0.31727 3.4645 1.0655 1.5788 0.74821 3.2857 1.3751 3.7933 1.3931 0.5076 0.01789 0.093 0.18183-0.9214 0.36415-1.6936 0.3044-1.6327 0.33317 0.7447 0.35206 1.424 0.0113 4.2398 0.34368 6.2574 0.73859l3.6684 0.71801-6.5666 0.67444 3.2581 0.49614c3.7711 0.57429 5.109 1.0968 2.1235 0.82933-1.2278-0.10993-2.0341-6e-3 -2.0303 0.2614 0.01 0.52509 6.6504 0.30736 7.7257-0.25321 1.1557-0.60251 2.0677-0.41779 0.9534 0.19311-0.5681 0.31145-2.9989 0.73-5.4018 0.9301l-4.3689 0.36379 4.0713 0.22412c2.604 0.14335 0.8966-0.18782-4.0713-0.22412-4.759-0.0348-6.5306 0.44898-5.1684 0.63056 1.2227 0.1627 1.8907 0.32218 1.4844 0.35438-0.4064 0.0323-0.237 0.23728 0.3764 0.45572 0.8088 0.28806 0.3756 0.33434-1.5771 0.16847-1.5377-0.13056-2.8876-0.0555-3.1477 0.1752 1.5761 0.33037 3.2288 0.90231 4.389 2.0191 3.5387 1.5751-0.53206-0.78136 0.2378 1.5358 0.1587 0.38666-0.3256 0.49166-1.6767 0.36336-1.045-0.0993-2.1029-5.29e-4 -2.3508 0.21929-0.2915 0.25849 1.0871 0.30622 3.9027 0.13507 2.5822-0.15694 3.6031-0.12991 2.5092 0.0663-1.6905 0.30341-1.7207 0.34773-0.3621 0.53156 0.8152 0.11031-0.017 0.14503-1.848 0.0771-2.2691-0.0842-2.9818-8e-3 -2.2369 0.24094 2.0125 0.6708 0.08 0.94497-3.1109 0.44134-3.7938-0.59883-7.2283-0.82943-7.2233-0.48499 0 0.13783 0.5894 0.48339 1.3054 0.76799 0.9331 0.37091 1.0144 0.52321 0.2871 0.53767-0.7994 0.01651-0.8254 0.1401-0.1224 0.58523 0.4908 0.31075 1.3128 0.47507 1.8265 0.36516 1.2623-0.27013 2.9368 0.85376 2.4062 1.615-0.2443 0.35033 0.2809 0.98416 1.2268 1.4807l1.6538 0.86825-4.4187 0.47159 2.7886 0.2353c3.1885 0.26908 7.0698 1.6472 5.5794 1.9811-0.5773 0.1294-0.4399 0.21816 0.3582 0.23152 0.7121 0.01201 1.2975 0.21959 1.301 0.46148 0 0.26191 0.6991 0.34118 1.7189 0.19599 0.9418-0.13407 3.856-0.01159 6.4758 0.27205l4.7633 0.51592-6.9749-0.10426c-12.068-0.18037-6.5171 0.62547 8.1392 1.1816 20.644 0.78331 38.202 0.89882 68.754 0.4523 22.788-0.33303 26.094-0.44611 18.551-0.63443-5.049-0.12604-12.872-0.23316-17.385-0.23808-9.0364-0.01 20.759-0.66613 61.786-1.3609 16.472-0.27898 28.1-0.3098 30.988-0.082 5.0131 0.39528 6.6989 0.18719 4.6953-0.57959-1.1353-0.43438-1.0292-0.51407 0.9932-0.7465 1.8299-0.21035 2.1859-0.41492 1.8572-1.0674-0.2243-0.44391-1.0061-0.80267-1.7389-0.7972-1.8552 0.01389-3.678-0.38626-3.684-0.80868-0.01-0.46093 7.5162-0.51576 9.7844-0.0715 1.421 0.27851 1.7672 0.2103 1.8392-0.36254 0.048-0.38805-0.6392-0.90057-1.5291-1.1389-1.351-0.36193-1.0989-0.39863 1.5307-0.22281 3.7078 0.24791 3.7568-0.36679 0.1303-1.6229-1.2339-0.42734-2.4357-1.1642-2.6706-1.6375-0.236-0.47327-1.0666-1.1644-1.8493-1.5359-1.6992-0.80688-1.8363-1.343-0.3459-1.3541 0.6615-5e-3 0.9165-0.2395 0.6519-0.60015-0.3149-0.42925 0.075-0.59581 1.4206-0.60585l1.8551-0.01389-2.0898-1.175c-1.1493-0.64622-2.4555-1.1722-2.9024-1.1689-0.4471 3e-3 -0.815-0.17249-0.8183-0.39073 0-0.21824-0.7268-0.39143-1.6082-0.38486-2.2699 0.01691-1.4721-0.23374 1.852-0.58175 2.1138-0.22131 2.7042-0.17517 2.3033 0.18009-0.3434 0.30459-0.1675 0.40311 0.4858 0.27188 0.5637-0.11309 1.6108 0.0622 2.3278 0.38952 1.8082 0.82612 1.6288 0.01831-0.2275-1.0289-0.8362-0.47146-2.2563-0.86309-3.156-0.87032-3.2292-0.0258-6.5347-0.23781-6.9276-0.44405-0.6761-0.35493 6.3091-0.82687 9.0326-0.61029 1.5198 0.1208 2.3898 0.0532 2.132-0.16597-0.2405-0.20354-0.9149-0.36651-1.5011-0.36214-0.5861 5e-3 -1.0682-0.17062-1.0714-0.38887-0.01-0.39436 4.0541-0.65139 8.715-0.5518 1.3402 0.0287 2.2655-0.0937 2.056-0.27168-0.2093-0.17804-3.4067-0.41635-7.105-0.52956-3.6983-0.11325-7.459-0.42091-8.3569-0.68383l-1.6325-0.47802 1.6622-0.14798c0.9142-0.0814 1.6599-0.28932 1.6574-0.46212 0-0.17282-0.8349-0.22263-1.8505-0.11069-1.052 0.11584-1.8489 0.0182-1.8524-0.22719 0-0.23684 0.4942-0.33155 1.1063-0.21049 0.6119 0.12113 1.1098 0.02241 1.1063-0.21911 0-0.2416 0.7149-0.44464 1.596-0.45121 2.8531-0.0213 0.2955-0.66377-2.9513-0.74133-0.5328-0.01259-0.7477-0.21893-0.478-0.45821 0.3169-0.28088 0.747-0.30066 1.2132-0.056 0.4663 0.24481 1.4852 0.21863 2.874-0.0739 2.709-0.57048 2.7589-1.0689 0.1073-1.0855-1.8024-0.0113-1.8662-0.0529-0.5598-0.36478 1.2302-0.29381 1.0713-0.35365-0.961-0.36178-1.3395-5e-3 -2.8399-0.1886-3.3345-0.40722-0.4943-0.21863-1.672-0.73089-2.6169-1.1384-1.5452-0.66635-1.5941-0.77912-0.4872-1.1213 0.9664-0.29864 0.5366-0.43696-2.0001-0.64376-1.7772-0.14486-3.7895-0.28363-4.4718-0.30839-0.6825-0.02479-1.0636-0.2022-0.8469-0.39432 0.2166-0.19212 1.0617-0.26079 1.8779-0.1526 2.0142 0.26705 4.4279-0.57762 3.4392-1.2036-0.5434-0.34399-0.1223-0.54919 1.5587-0.76022 2.7615-0.34661 2.3715-0.68933-0.9141-0.80342-1.3177-0.0459-2.5205-0.27857-2.673-0.51735-0.1524-0.23877-0.7384-0.43072-1.3017-0.42651-0.5641 5e-3 -0.8533-0.23819-0.6434-0.53926 0.2094-0.30079-0.1602-0.65407-0.8227-0.78505-0.9514-0.18825-1.0982-0.0651-0.7005 0.58845 0.49 0.80485 0.4663 0.80758-0.8958 0.10342-0.8914-0.46077-1.0852-0.76917-0.534-0.84984 1.1714-0.17143 1.7827-2.0758 0.6636-2.0674-0.4758 4e-3 -1.5151-0.24628-2.3092-0.55516-1.4212-0.55278-1.4186-0.57561 0.1595-1.4526 1.5572-0.86523 1.6613-0.87121 3.6015-0.20701 1.0988 0.37622 1.7682 0.48863 1.4871 0.24982-0.3243-0.27563 0.248-0.44905 1.5664-0.47486 1.9813-0.0389 2.0001-0.0566 0.4077-0.38711-1.1149-0.23139-1.6739-0.68009-1.6836-1.3512-0.01-0.59433-0.4354-1.0017-1.0448-0.99712-0.5666 5e-3 -1.2256-0.25872-1.4644-0.58436-0.2392-0.3256-0.9164-0.58841-1.5052-0.58402-0.5891 5e-3 -1.1918-0.18123-1.3396-0.41248-0.1476-0.23124-3.1503-0.5398-6.6726-0.68566-4.3404-0.17976-6.7996-0.47285-7.6314-0.90958-1.3558-0.71191-1.629-0.73084-8.5131-0.59043-2.6414 0.0539-4.5843-0.0216-4.3182-0.16751 0.5384-0.29506 6.5003-0.62424 16.374-0.90404 6.6255-0.18771 9.9512-0.67959 4.3112-0.63751-1.6949 0.0126-3.0842-0.16645-3.0876-0.39797 0-0.27394-1.7051-0.33992-4.8705-0.18892-3.6576 0.17458-4.7795 0.1105-4.5228-0.25779 0.4258-0.61093-2.4161-0.74753-3.6696-0.17637-0.98103-0.04499-1.1717-1.8709-2.1419-2.0229-1.5182-0.22885 0.5516-0.32216 6.5255-0.29421 4.8121 0.0224 8.9752 0.20579 9.2515 0.40729 0.575 0.41962 3.6886 0.59257 5.2674 0.29266 1.2332-0.23429-1.81-1.1763-4.5822-1.4185-0.9274-0.081 0.9158-0.17955 4.0958-0.21898 3.1802-0.0396 5.9794-0.18005 6.2209-0.31238 0.2414-0.13229-0.5319-0.246-1.7185-0.25248-1.1866-7e-3 -2.8253-0.15149-3.6412-0.32225-1.2555-0.26266-1.0584-0.35815 1.2799-0.62053 1.5199-0.17054 3.314-0.20118 3.9868-0.0681 1.0233 0.20244 1.0689 0.14438 0.2796-0.35534-0.5189-0.32851-2.1509-0.60085-3.6267-0.60519-2.1171-6e-3 -2.3721-0.0777-1.2087-0.33908 1.1701-0.26286 0.7104-0.39702-2.2282-0.64997-4.7763-0.41116-34.529-0.0176-35.075 0.46397-0.2286 0.20158-1.2466 0.45567-2.2618 0.56465-1.5634 0.16778-1.4779 0.20369 0.558 0.23426 1.3224 0.0198 2.4021-0.0979 2.3996-0.26148-0.01-0.4683 7.6929-0.122 8.3966 0.37767 0.4005 0.28421 0.4839 0.20676 0.2277-0.21197-0.3468-0.56727 0.3425-0.68379 4.9108-0.83033 7.7009-0.24701 18.226 0.14511 19.25 0.7172 0.6971 0.38935 0.1116 0.44382-2.863 0.26638-2.0568-0.12266-5.3843-0.0758-7.395 0.10414-3.4557 0.30931-3.2828 0.33559 3.1606 0.48054 4.1024 0.0922 7.198 0.35418 7.7756 0.65783 0.7834 0.41174-0.4677 0.50889-6.806 0.52841-4.2713 0.0132-11.757 0.05984-16.635 0.31684-11.066 0.58292-12.945 0.78119-11.462 0.32066 0.6074-0.18863 3.9122-0.48015 7.3438-0.64779 3.4317-0.16764 6.4112-0.39908 6.6212-0.51426 0.6204-0.34006-15.629 0.37391-17.964 0.78928-1.1765 0.20933-3.6224 0.39166-5.4358 0.40519-2.7426 0.0205-3.2176 0.13259-2.825 0.66751 0.4074 0.55564-0.01 0.61703-3.0579 0.45219-6.7864-0.36673-9.972-1.0014-5.2048-1.037 1.4581-0.0109 3.2306-0.14379 3.9386-0.29524 0.9467-0.20261 1.1292-0.13532 0.6896 0.25458-0.415 0.36794-0.3151 0.43375 0.3263 0.21521 0.5083-0.17317 2.6358-0.47297 4.7275-0.66622l3.8033-0.35133-3.3947 0.0988c-2.8993 0.0845-3.3468-2e-3 -3.0671-0.59537 0.2892-0.61332-0.1565-0.67092-3.8227-0.49393-3.0794 0.14866-4.152 0.0669-4.1575-0.31688-0.01-0.59693 6.7765-1.1941 7.4139-0.65248 0.2212 0.18809 1.6437 0.41526 3.161 0.50483 1.5906 0.0939 2.5772 9e-3 2.33-0.20153-0.2357-0.2004 0.01-0.38543 0.539-0.41116 0.5322-0.0257 0.1336-0.17329-0.8857-0.32793-1.0192-0.15465-2.4733-0.10815-3.2311 0.10329-0.923 0.25741-1.2247 0.24815-0.913-0.0283 0.6481-0.57476-0.213-0.77628-4.3165-1.0097-2.9826-0.1697-3.4869-0.10554-3.1187 0.39622 0.3494 0.47634-0.1986 0.60453-2.6807 0.62735-1.716 0.0158-3.8672 0.14193-4.7807 0.28036-1.0326 0.1565-1.6629 0.0753-1.667-0.21482 0-0.25658 0.3045-0.36609 0.6849-0.24334 0.3805 0.1227 0.8788 0.0572 1.1076-0.14565 0.2457-0.21783-1.3644-0.26884-3.9329-0.12461-5.7059 0.32036-16.98-0.17308-13.778-0.6031l2.2146-0.29745-2.2203-0.0929c-1.2211-0.0511-2.719-0.0633-3.3287-0.027-6.4657 0.38385-17.177 0.52726-16.309 0.21838 0.7068-0.2515-0.8392-0.35394-4.6027-0.30493-3.6536 0.0477-5.4991 0.21645-5.1945 0.47539 0.2903 0.24682-0.027 0.30287-0.8225 0.14547-0.7123-0.14092-3.2646-0.24151-5.6719-0.22355-3.5 0.0261-4.3788-0.0932-4.386-0.59563-0.01-0.34555-0.4239-0.54333-0.9309-0.4395-0.507 0.10382-0.8113 0.43347-0.6763 0.73258 0.1967 0.43565 0.057 0.44655-0.7018 0.0549-0.5211-0.26894-2.6282-0.48188-4.6825-0.47321-2.5088 0.0112-3.3719-0.10158-2.629-0.34193 0.6083-0.19674 2.5288-0.22891 4.2679-0.0715 1.739 0.15742 3.3385 0.12961 3.5544-0.0619 0.2158-0.19143 1.2714-0.35462 2.3457-0.36263 1.2663-0.01 1.6981-0.14856 1.2278-0.3954-0.8717-0.45763-21.244-0.57373-23.367-0.13318zm12.647 1.9542c5.8094 0.48354 10.768 0.98682 11.018 1.1184 0.5883 0.30887-13.784 6.61e-4 -15.739-0.33759-1.8562-0.32112-2.3734-0.36014-5.4589-0.41189-2.1288-0.0357-2.3612-0.13027-1.583-0.6439 0.5017-0.33113 0.9769-0.60256 1.056-0.60314 0.079-5.9e-4 4.8972 0.39455 10.707 0.87808zm-20.946 0.99673c-1.4003 0.58213-3.3602 0.813-3.3663 0.39656 0-0.24014 2.9349-0.94449 4.0541-0.97181 0.4066-0.0106 0.097 0.24894-0.6878 0.57525zm11.863-8e-3c-0.2039 0.11176-1.7983 0.35822-3.5433 0.54769-1.745 0.18949-3.7533 0.46994-4.463 0.62322-0.9711 0.20974-1.2933 0.0781-1.3021-0.53222-0.01-0.62484 0.5394-0.84356 2.3901-0.9532 2.912-0.1725 7.4318 0.0329 6.9183 0.31451zm5.681 0.73864c-0.9083 0.10095-2.5722 0.11577-3.6977 0.0336-1.1255-0.0828-0.3824-0.16545 1.6514-0.18358 2.0337-0.0182 2.9546 0.0496 2.0463 0.15058zm58.435-0.0581c-0.4992 0.11246-1.4975 0.12651-2.2185 0.0315-0.7211-0.0953-0.3127-0.18723 0.9075-0.20443 1.2202-0.0165 1.8101 0.0607 1.311 0.17318zm17.194 0.80198c0.2544 0.21636 0.111 0.39601-0.3204 0.39922-0.4308 3e-3 -0.7857-0.1727-0.7889-0.39094 0-0.21825 0.1411-0.3979 0.3204-0.39924 0.1795-2e-3 0.5343 0.17458 0.7889 0.39096zm-8.3162 0.32485c-0.507 0.11387-1.339 0.12008-1.8489 0.0138-0.5102-0.10629-0.095-0.19946 0.9215-0.20705 1.0169-8e-3 1.4342 0.0794 0.9274 0.19326zm-90.017 2.3928c-0.2482 0.22012-0.8478 0.40043-1.3323 0.40071-0.5293 7.14e-4 -0.4403-0.15635 0.223-0.39244 1.4137-0.50324 1.6697-0.50515 1.1094-8e-3zm118.71-0.48858c-1.4266 0.50785-2.2114 0.5137-2.2187 0.0165 0-0.21824 0.7432-0.39965 1.6584-0.40313 1.3457-5e-3 1.4528 0.0688 0.5603 0.38658zm3.9037 1.4242c-0.5068 0.11386-1.3387 0.12007-1.8489 0.0138-0.51-0.10629-0.095-0.19946 0.9217-0.20706 1.0168-8e-3 1.4342 0.0795 0.9272 0.19328zm-119.62 1.4186c0.2717 0.23097-0.059 0.28663-0.8153 0.13703-0.8636-0.17086-1.0988-0.10386-0.7314 0.20841 0.3314 0.28171 0.059 0.46385-0.7021 0.46952-1.0216 8e-3 -1.0807-0.0983-0.3315-0.59279 1.0571-0.69778 1.9322-0.77313 2.5803-0.2222zm112.98-0.57531c-0.5069 0.11388-1.3389 0.12008-1.849 0.0138-0.51-0.10629-0.095-0.19948 0.9216-0.20704 1.017-8e-3 1.4342 0.0794 0.9274 0.19323zm33.657 1.3133c-0.2438 0.13366-0.8815 0.15252-1.4172 0.0419-0.5918-0.12231-0.4178-0.21761 0.4435-0.24306 0.7793-0.0231 1.2175 0.0674 0.9737 0.20116zm-145.49 1.3983c0.01 0.37642-2.2057 0.58262-2.6053 0.24296-0.2434-0.2069 0.2428-0.38132 1.0802-0.38757 0.8376-6e-3 1.5238 0.0589 1.5251 0.14461zm-1.6553 1.6835c-0.2438 0.13365-0.8816 0.15251-1.4171 0.0419-0.5918-0.12232-0.4179-0.21758 0.4434-0.24305 0.7793-0.0231 1.2175 0.0674 0.9737 0.20117zm0.9558 1.0996c0 0.0858-0.5127 0.26614-1.1421 0.40082-0.6562 0.14047-0.954 0.0762-0.6981-0.15076 0.4288-0.38028 1.8356-0.57144 1.8402-0.25006zm2.0769 4.0368c-0.2438 0.13366-0.8815 0.15252-1.417 0.0419-0.5918-0.12232-0.4179-0.2176 0.4433-0.24306 0.7794-0.0231 1.2176 0.0674 0.9737 0.20116zm-1.8217 0.83034c-0.5068 0.11387-1.3389 0.12008-1.8489 0.0138-0.51-0.10629-0.095-0.19945 0.9216-0.20705 1.0169-8e-3 1.4342 0.0795 0.9273 0.19325zm-0.105 5.5349c0 0.0858-0.4969 0.15969-1.107 0.16424-0.6102 5e-3 -1.1119-0.16469-1.115-0.37608 0-0.2114 0.4952-0.28529 1.1072-0.16423 0.6119 0.12113 1.1136 0.29032 1.1148 0.37607zm164.42 2.1008c1.2 0.73642 1.1994 0.77526-0.01 0.68529-1.2886-0.0958-1.6561-0.33083-1.6667-1.0661-0.01-0.55993 0.2336-0.50503 1.6774 0.38079zm-3.3478 0.26829c-0.2437 0.13365-0.8814 0.15251-1.417 0.0419-0.5917-0.12234-0.4179-0.2176 0.4435-0.24307 0.7793-0.0231 1.2175 0.0675 0.9735 0.20117zm-175.71 2.1622c0.929 0.62249 0.9031 0.63671-0.277 0.15191-1.2395-0.50918-1.6359-0.8321-1.0273-0.83665 0.1535-0.0021 0.7406 0.30699 1.3043 0.68475zm-9.4161 0.78533c0.2578 0.35124 0.136 0.51143-0.2853 0.37555-0.404-0.13032-0.737-0.40501-0.74-0.61037-0.01-0.57076 0.5237-0.44895 1.0253 0.23482zm16.753 1.6402c0 0.21824-0.141 0.39791-0.3204 0.39924-0.1795 0.0021-0.5345-0.1746-0.789-0.39096-0.2544-0.21637-0.1103-0.39602 0.3204-0.39924 0.4308-3e-3 0.7858 0.17272 0.789 0.39096zm1.5008 1.1793c1.1698-9e-3 2.3352 0.16116 2.5897 0.37753 0.9571 0.81351-6.2896 0.0913-8.1478-0.81205-0.4097-0.19915 0.1947-0.17928 1.3431 0.0441 1.1485 0.22344 3.0452 0.3991 4.215 0.39038zm-4.3149 2.5888c2.1953 0.51671 3.4924 0.94956 2.8824 0.96189-1.2951 0.02619-7.4161-1.3591-7.4207-1.6795-0.01-0.33209 0.249-0.29194 4.5383 0.71758zm8.8051 1.3462 1.8535 0.30389-1.8488 0.0258c-1.0168 0.0136-2.5165-0.12312-3.3327-0.30453l-1.4841-0.33 1.4793 7.94e-4c0.8136-1.09e-4 2.3134 0.1374 3.3328 0.30455zm4.3833 1.7762c0.1811 0.0951-0.641 0.20824-1.8269 0.25148-2.7177 0.099-3.0719 0.0775-6.2308-0.37847-2.1261-0.30694-1.6629-0.34487 2.5671-0.21021 2.8387 0.0904 5.3095 0.24212 5.4906 0.3372zm167.45 1.9671c-0.5067 0.11386-1.3387 0.12008-1.8489 0.01381-0.5099-0.10629-0.096-0.19946 0.9217-0.20705 1.017-8e-3 1.4343 0.0795 0.9272 0.19325zm2.167 13.471c0.1705 0.0756-1.3262 0.12869-3.3266 0.11827-2.0002-0.0105-3.0515-0.10533-2.3363-0.21102 0.7154-0.10569 1.1165-0.34867 0.8916-0.53999-0.3568-0.30324 3.9451 0.26722 4.7713 0.63272zm-164.98 6.7688c-0.2438 0.13364-0.8815 0.1525-1.4171 0.0419-0.5918-0.12232-0.4179-0.21761 0.4434-0.24306 0.7794-0.0231 1.2175 0.0674 0.9737 0.20116zm44.028 0.22202c2.0592-0.01389 3.5156 0.15804 3.5193 0.41405 0 0.30692-2.6881 0.38655-9.0568 0.26786-4.9847-0.0929-13.391-0.24396-18.681-0.33567-5.2898-0.0918-9.7856-0.26198-9.9907-0.37834s6.6177-0.15165 15.162-0.0784c8.544 0.0732 17.115 0.123 19.048 0.11049zm29.083-61.047c0.9214 0.0881 2.2524 0.0746 2.9582-0.0295 0.7057-0.10456-0.049-0.17663-1.6752-0.16008-1.627 0.0166-2.2043 0.10209-1.283 0.19015zm-5.3574 0.94983c0.2545 0.21636 0.6096 0.39229 0.789 0.39094 0.1795-2e-3 0.3235-0.18098 0.3203-0.39922 0-0.21824-0.3581-0.39416-0.7888-0.39095-0.4308 3e-3 -0.575 0.18286-0.3205 0.39923zm18.494-0.14242c-0.2559 0.22686 0.041 0.29119 0.6982 0.15077 1.2775-0.27336 1.5077-0.55952 0.4439-0.55158-0.3827 3e-3 -0.8967 0.18322-1.1421 0.40081zm-58.196 0.7097c0.5355 0.11061 1.1732 0.0917 1.4171-0.0419 0.2438-0.13366-0.1945-0.22421-0.9737-0.20116-0.8613 0.0255-1.0352 0.12081-0.4434 0.24307zm51.463-0.32437c0.3648 0.31007 4.8855 0.1122 4.8808-0.21371 0-0.0843-1.1866-0.14452-2.6343-0.13373-1.4478 0.0108-2.4587 0.16715-2.2465 0.34744zm32.859 0.48906c0.5355 0.11059 1.1732 0.0917 1.4169-0.0419 0.244-0.13366-0.194-0.22421-0.9736-0.20118-0.8612 0.0255-1.0351 0.12083-0.4433 0.24309zm-5.5731 0.44234c0.721 0.0953 1.7192 0.0812 2.2185-0.0315 0.4989-0.11246-0.092-0.19036-1.3109-0.17315-1.2201 0.0165-1.6287 0.10919-0.9076 0.20441zm5.748 2.0729c-1.5955 0.29519-1.4704 0.33149 0.9285 0.26926 1.5249-0.0396 2.7706-0.21401 2.7681-0.38764-0.01-0.3799-1.2121-0.34126-3.6966 0.11831zm-10.718 0.46709c-0.248 0.22011 0.2339 0.39512 1.0715 0.38887 0.8375-6e-3 1.5201-0.18993 1.517-0.40817 0-0.21824-0.4853-0.39322-1.0714-0.38884-0.586 5e-3 -1.2688 0.18802-1.5171 0.40814zm4.2705 0.24317c0.7211 0.0953 1.7195 0.0812 2.2186-0.0315 0.4991-0.11246-0.092-0.19035-1.311-0.17316-1.2201 0.0165-1.6285 0.10919-0.9076 0.20441zm30.168 2.8281c0 0.0843 0.9841 0.22328 2.1842 0.30874 1.2002 0.0854 2.0117 0.0103 1.803-0.16682-0.3711-0.3154-3.9916-0.44428-3.9872-0.14192zm-1.6047 0.92336c0.5355 0.11059 1.1732 0.0917 1.4171-0.0419 0.2438-0.13366-0.1943-0.22421-0.9737-0.20117-0.8613 0.0254-1.0352 0.12081-0.4434 0.24307zm7.5476 0.86317c0 0.21825 0.4853 0.39321 1.0714 0.38884 0.5862-5e-3 1.2689-0.18804 1.517-0.40816 0.2483-0.22012-0.2338-0.39511-1.0714-0.38886-0.8374 6e-3 -1.5202 0.18993-1.517 0.40818zm-6.5637 2.1778c0.1705 0.0782 1.0545 0.3437 1.9643 0.58979 1.39 0.37608 1.5837 0.35156 1.213-0.15379-0.2428-0.33064-1.1265-0.59604-1.9642-0.5898-0.8379 6e-3 -1.3837 0.0754-1.2131 0.15378zm15.336 1.8194c0.869 0.55054 3.8763 1.2047 3.8711 0.84208 0-0.0831-1.0881-0.44302-2.4154-0.79986-2.0402-0.5485-2.2651-0.55502-1.4557-0.0422zm-164.11 4.9726c0.5355 0.1106 1.1732 0.0917 1.417-0.0419 0.2438-0.13366-0.1944-0.22421-0.9737-0.20117-0.8613 0.0254-1.0352 0.12082-0.4433 0.24307zm170.85 2.6858c0.5099 0.1063 1.342 0.1001 1.8488-0.0138 0.507-0.11386 0.09-0.20082-0.9272-0.19323-1.0171 8e-3 -1.4317 0.10066-0.9216 0.20702zm-186.14 4.847c1e-3 0.0823 0.5122 0.3717 1.1357 0.64293 0.9478 0.4123 1.0556 0.38694 0.6582-0.15475-0.4058-0.55324-1.8003-0.93275-1.7939-0.48818zm193.42 2e-3c0.2588 0.2199 0.7787 0.29477 1.1556 0.16638 1.0209-0.3478 0.8263-0.58449-0.4728-0.5748-0.6342 5e-3 -0.9414 0.18852-0.6828 0.40842zm-1.4506 2.4959c2.0699 0.78649 4.8249 1.1853 4.8179 0.6974-0.01-0.52785-0.6131-0.69122-3.7128-1.0024-2.3994-0.24081-2.4817-0.21806-1.1051 0.30498zm-197.87 3.9449c0.4288 0.43333 1.4835 1.2291 2.3437 1.7683 1.0674 0.66903 1.3166 0.7302 0.7845 0.19257-0.4288-0.43332-1.4834-1.2291-2.3437-1.7683-1.0673-0.66903-1.3165-0.7302-0.7845-0.19256zm207.38 0.91078c0.7213 0.0953 1.7195 0.0812 2.2188-0.0315 0.4989-0.11246-0.093-0.19033-1.3112-0.17316-1.2201 0.01659-1.6286 0.10918-0.9076 0.20441zm2.6719 6.7143c0.51 0.10628 1.342 0.10009 1.8487-0.01381 0.507-0.11386 0.089-0.20083-0.9272-0.19323-1.0168 8e-3 -1.4315 0.10066-0.9215 0.20702zm3.1443 0.0681c0 0.19489 0.5057 0.45342 1.1178 0.57447 0.6779 0.13414 1.1096-8e-3 1.1044-0.36263 0-0.3205-0.5077-0.57903-1.1179-0.57447-0.6103 5e-3 -1.1071 0.16773-1.1043 0.36263zm2.2539 2.4067c-0.6634 0.23611-0.7523 0.39273-0.2236 0.39244 0.4843-5.3e-4 1.0841-0.18059 1.3321-0.4007 0.5603-0.49688 0.3044-0.49497-1.1092 8e-3zm3.895-0.15083c0.721 0.0953 1.7193 0.0812 2.2182-0.0315 0.4994-0.11246-0.093-0.19032-1.3107-0.17316-1.2202 0.01661-1.6287 0.10919-0.9075 0.20444zm-9.1954 1.2552c0.5356 0.11058 1.1733 0.0917 1.417-0.0419 0.2442-0.13366-0.1932-0.22422-0.9737-0.20116-0.8612 0.0254-1.0351 0.12082-0.4433 0.24306zm8.2691 0.24174c1.0162 0.29294 2.1352 0.43451 2.4871 0.31462 0.8842-0.3012-1.055-0.88939-2.8558-0.86625-1.3091 0.0172-1.2668 0.0801 0.3687 0.55163zm-13.859 12.872-1.8392 0.59307 1.8449-0.27803c2.0555-0.30975 2.6083-0.50153 2.1455-0.74448-0.172-0.0901-1.1395 0.10329-2.1512 0.42944zm-184.26 3.3823c0.5356 0.11059 1.1733 0.0917 1.4171-0.0419 0.2438-0.13367-0.1944-0.22422-0.9737-0.20117-0.8613 0.02551-1.0351 0.12082-0.4434 0.24308zm148.08 0.60864c0.6132 0.207 3.2778 0.33911 5.9213 0.29358l4.8065-0.0828-3.7023-0.28146c-5.5311-0.42046-8.395-0.39164-7.0255 0.0707zm15.922-0.13783c-0.3086 0.27377 0.9976 0.40845 3.7615 0.38783 4.9443-0.0369 4.9983-0.22481 0.1627-0.56467-2.146-0.15082-3.63-0.0839-3.9243 0.17686zm-50.396 0.71493c0.3586 0.30475 5.6376 0.11078 5.6329-0.20699 0-0.0852-1.3529-0.14491-3.0042-0.13259-1.651 0.0123-2.8338 0.16513-2.6287 0.33958zm19.132-0.1891c0.7132 0.0944 1.8782 0.0857 2.5886-0.01929 0.7103-0.10519 0.1266-0.18243-1.297-0.17182-1.4235 0.01061-2.0049 0.0967-1.2916 0.19113zm41.436 0.0892c0.7211 0.0953 1.7193 0.0812 2.2185-0.0315 0.499-0.11247-0.092-0.19034-1.3111-0.17316-1.22 0.01651-1.6287 0.10918-0.9074 0.20441z" fill="#fff" stroke-width=".54175"/>
<text x="-168.01575" y="-52.918484" fill="#f57700" font-family="'PT Serif'" font-size="38.414px" letter-spacing="0px" stroke-width="7.2026" word-spacing="0px" style="line-height:1.25" xml:space="preserve"><tspan x="-168.01575" y="-52.918484" fill="#d80000" font-family="'Cabin Sketch'" font-weight="bold" stroke-width="7.2026" text-align="center" text-anchor="middle">Cantopia</tspan></text>
<text x="-167.81274" y="-32.340546" fill="#000000" font-family="'PT Serif'" font-size="19.438px" letter-spacing="0px" stroke-width="3.6447" word-spacing="0px" style="line-height:1.25" xml:space="preserve"><tspan x="-167.81274" y="-32.340546" fill="#195aa9" font-family="'Cabin Sketch'" font-weight="bold" letter-spacing="0px" stroke-width="3.6447" text-align="center" text-anchor="middle" style="line-height:1.25">settle down &amp; rise up</tspan></text>
</g>
</svg>
