<?xml version="1.0" encoding="UTF-8" standalone="no"?>
<!-- Created with Inkscape (http://www.inkscape.org/) -->

<svg
   xmlns:dc="http://purl.org/dc/elements/1.1/"
   xmlns:cc="http://creativecommons.org/ns#"
   xmlns:rdf="http://www.w3.org/1999/02/22-rdf-syntax-ns#"
   xmlns:svg="http://www.w3.org/2000/svg"
   xmlns="http://www.w3.org/2000/svg"
   xmlns:sodipodi="http://sodipodi.sourceforge.net/DTD/sodipodi-0.dtd"
   xmlns:inkscape="http://www.inkscape.org/namespaces/inkscape"
   width="266.91138mm"
   height="102.63348mm"
   viewBox="0 0 266.91138 102.63348"
   version="1.1"
   id="svg8"
   inkscape:version="0.92.3 (2405546, 2018-03-11)"
   sodipodi:docname="cantopia-logo-shadow.svg">
  <defs
     id="defs2">
    <filter
       style="color-interpolation-filters:sRGB"
       id="filter1008"
       inkscape:label="Filter0">
      <feBlend
         mode="normal"
         in2="SourceGraphic"
         id="feBlend1010" />
    </filter>
    <filter
       inkscape:collect="always"
       style="color-interpolation-filters:sRGB"
       id="filter1337"
       x="-0.083089374"
       width="1.1661788"
       y="-0.29438904"
       height="1.5887781">
      <feGaussianBlur
         inkscape:collect="always"
         stdDeviation="7.9238493"
         id="feGaussianBlur1339" />
    </filter>
  </defs>
  <sodipodi:namedview
     id="base"
     pagecolor="#ffffff"
     bordercolor="#666666"
     borderopacity="1.0"
     inkscape:pageopacity="0.0"
     inkscape:pageshadow="2"
     inkscape:zoom="0.43618969"
     inkscape:cx="352.70823"
     inkscape:cy="219.15436"
     inkscape:document-units="mm"
     inkscape:current-layer="layer1"
     showgrid="false"
     inkscape:window-width="1376"
     inkscape:window-height="1057"
     inkscape:window-x="536"
     inkscape:window-y="0"
     inkscape:window-maximized="0"
     fit-margin-top="0"
     fit-margin-left="0"
     fit-margin-right="0"
     fit-margin-bottom="0" />
  <metadata
     id="metadata5">
    <rdf:RDF>
      <cc:Work
         rdf:about="">
        <dc:format>image/svg+xml</dc:format>
        <dc:type
           rdf:resource="http://purl.org/dc/dcmitype/StillImage" />
        <dc:title></dc:title>
      </cc:Work>
    </rdf:RDF>
  </metadata>
  <g
     inkscape:label="Ebene 1"
     inkscape:groupmode="layer"
     id="layer1"
     transform="translate(295.73162,102.80261)">
    <path
       style="fill:#000000;fill-opacity:0.17808222;stroke-width:0.55849689;filter:url(#filter1337)"
       d="m -238.84532,-83.499722 c -0.84557,0.175536 -1.78391,0.239555 -2.08543,0.142354 -0.74741,-0.2411 -15.68699,3.754566 -16.39908,4.385992 -0.31334,0.277754 0.41134,0.159601 1.61,-0.262563 1.88614,-0.664097 2.04402,-0.673404 1.17136,-0.06906 -1.81671,1.257807 0.89868,2.145801 3.0756,1.005923 0.91666,-0.479979 4.78141,-1.565034 5.59582,-1.571132 0.19006,-0.0021 0.34936,0.264888 0.354,0.591782 0.0103,0.333744 -1.18524,0.780526 -2.71398,1.018918 -1.49709,0.23347 -3.86657,0.904142 -5.26515,1.490386 -1.39848,0.586242 -2.88841,1.068468 -3.31076,1.071603 -0.42283,0.003 -0.93981,0.157783 -1.14984,0.343661 -0.2096,0.185878 0.71551,0.278687 2.05502,0.20623 1.34,-0.07239 1.83272,-0.02904 1.09562,0.09669 -0.73711,0.125632 -1.15119,0.389204 -0.9202,0.585654 0.23109,0.196412 0.92221,0.249695 1.53611,0.118417 0.61378,-0.131351 1.11879,-0.0351 1.12233,0.214065 0,0.24905 -0.35699,0.455551 -0.80082,0.458841 -0.44398,0.003 -0.59282,0.188534 -0.33025,0.411579 0.2858,0.24313 -0.83826,0.442069 -2.80729,0.496743 -3.17674,0.08821 -3.14664,0.09851 0.91273,0.317826 l 4.19697,0.226664 -3.41762,0.93922 c -3.25389,0.894242 -3.1573,0.958739 0.47889,0.319626 1.33346,-0.234405 1.60011,-0.121715 1.53438,0.648337 -0.0424,0.512613 -0.42083,1.069853 -0.8378,1.238278 -0.44924,0.181554 -0.29212,0.318827 0.38614,0.337176 0.62955,0.01713 0.11857,0.291527 -1.13471,0.609952 -1.27592,0.324143 -1.72779,0.583007 -1.02619,0.588094 0.68902,0.0051 1.45415,0.283759 1.70046,0.619446 0.28655,0.390273 1.4644,0.602751 3.26737,0.589313 4.00934,-0.02975 2.81081,0.346751 -2.00066,0.628587 -2.2381,0.131104 -4.19303,0.306043 -4.34363,0.38874 -0.15086,0.08276 1.5404,0.276489 3.75845,0.43071 l 4.03252,0.280374 -2.61326,0.408552 c -1.98536,0.310329 -2.34932,0.495872 -1.5139,0.771858 0.77117,0.254903 0.18962,0.380565 -1.94989,0.421097 -2.40678,0.04557 -2.72689,0.129509 -1.51916,0.397957 0.84154,0.187093 2.90261,0.349394 4.58018,0.360678 3.03538,0.02046 3.04104,0.02349 1.1529,0.61933 -1.83355,0.578543 -1.84111,0.598912 -0.22705,0.600862 0.91884,7.72e-4 1.88007,-0.183619 2.13585,-0.410532 0.57156,-0.506772 3.42319,-0.571528 3.43021,-0.07774 0.0103,0.55083 -6.21124,1.013069 -7.13131,0.530056 -1.3123,-0.689072 -2.28864,-0.462282 -1.14765,0.266648 0.95456,0.609716 0.83553,0.652828 -1.23455,0.446981 -1.25995,-0.125267 -2.97864,-0.340336 -3.81947,-0.47788 -1.23405,-0.201862 -1.19181,-0.144499 0.21886,0.297809 0.96113,0.301346 1.56898,0.645625 1.3513,0.765088 -0.21806,0.119439 0.62904,0.128735 1.88253,0.02067 1.72758,-0.149103 2.28125,-0.0372 2.28842,0.463371 0.0103,0.363025 0.43837,0.659676 0.96264,0.659184 0.69011,-5.55e-4 0.66461,0.09972 -0.0908,0.364083 -0.58372,0.203769 -0.78863,0.58316 -0.46398,0.859163 0.77469,0.658428 -3.52519,0.229277 -7.44278,-0.742827 -1.57834,-0.391649 -2.86923,-0.659034 -2.86832,-0.594226 9e-4,0.06482 1.46877,0.699588 3.26122,1.410622 1.7925,0.711045 2.57114,1.165653 1.73042,1.010215 -0.84108,-0.155445 -2.52739,-0.346326 -3.74714,-0.424205 -1.21969,-0.07765 -3.0278,-0.540945 -4.01818,-1.029054 -2.54179,-1.253141 -2.3458,-0.07481 0.22169,1.33228 1.93355,1.059951 1.97619,1.990917 0.0889,1.991972 -0.60794,-6.2e-5 -0.56761,-0.118399 0.1212,-0.358878 0.81532,-0.284591 0.82864,-0.424105 0.0636,-0.67038 -0.57145,-0.184337 -1.32579,-0.04022 -1.85207,0.354173 -0.81305,0.609107 -1.00992,0.607228 -2.33732,-0.02238 -1.41744,-0.672315 -1.41795,-0.667621 -0.0253,0.21274 0.78308,0.49512 1.69611,0.807473 2.02854,0.694121 0.33299,-0.113339 0.82471,-0.02017 1.09329,0.208958 1.12794,0.958725 -2.07286,0.859436 -4.58048,-0.142072 -2.12621,-0.849244 -2.67457,-0.933591 -2.66668,-0.410453 0.0103,0.362227 -0.33537,0.547372 -0.75674,0.411432 -1.1605,-0.374366 -0.89385,1.556715 0.40374,2.921246 0.62793,0.660262 2.0038,1.625555 3.05768,2.145104 1.05377,0.519545 1.70286,1.149574 1.44263,1.400061 -0.2606,0.250531 -0.19789,0.318647 0.13904,0.151427 0.33697,-0.167218 1.94411,0.327072 3.57156,1.09843 1.62755,0.771338 3.38727,1.417652 3.91063,1.436165 0.52329,0.01854 0.0939,0.187453 -0.95012,0.375405 -1.74582,0.313804 -1.68291,0.343466 0.76793,0.36293 1.46796,0.01166 4.37087,0.354304 6.45084,0.761425 l 3.78174,0.740207 -3.38484,0.347625 -3.38484,0.347654 3.35892,0.511491 c 3.88774,0.592027 5.26687,1.130704 2.18894,0.854949 -1.26571,-0.113312 -2.09679,-0.0061 -2.09295,0.269493 0.0103,0.54132 6.85612,0.316851 7.96452,-0.261042 1.19139,-0.621129 2.13155,-0.430697 0.9829,0.199081 -0.58586,0.321069 -3.09157,0.75257 -5.56869,0.958851 l -4.50399,0.375039 4.19696,0.231047 c 2.68467,0.147767 1.31164,0.209944 -3.80981,0.172529 -4.90642,-0.03608 -7.11955,0.05943 -5.7154,0.246476 1.26045,0.167725 1.94906,0.332136 1.53034,0.365317 -0.41888,0.03326 -0.24448,0.244616 0.38806,0.469821 0.83359,0.296947 0.38725,0.344663 -1.62583,0.173673 -1.58517,-0.134588 -2.97683,-0.05717 -3.2451,0.180607 -0.42479,0.376675 1.95628,0.921662 6.03974,1.382452 1.33507,0.150634 1.30593,0.179996 -0.23229,0.232927 -0.968,0.0333 -1.54537,0.243084 -1.28264,0.466165 0.62157,0.528407 4.96342,0.496021 4.95544,-0.0372 0,-0.225014 1.53803,-0.420592 3.42527,-0.434642 1.88677,-0.01421 3.43354,0.15847 3.43667,0.383462 0,0.224991 -1.3867,0.41945 -3.08873,0.432146 -1.92255,0.01461 -2.90918,0.180781 -2.605,0.439428 0.31324,0.266115 -0.70042,0.384408 -2.80935,0.327796 -2.47495,-0.06643 -3.24201,0.05142 -3.0694,0.47206 0.16386,0.398613 -0.33544,0.506856 -1.72837,0.374581 -1.07727,-0.102307 -2.16804,-5.34e-4 -2.42352,0.226079 -0.30045,0.266466 1.12073,0.315683 4.02344,0.139246 2.66187,-0.161799 3.71433,-0.133942 2.58675,0.06836 -1.74269,0.312772 -1.77412,0.358464 -0.37321,0.547986 0.84012,0.113727 -0.0171,0.149503 -1.90542,0.07948 -2.33914,-0.08691 -3.07383,-0.008 -2.30575,0.248369 2.07446,0.691544 0.0807,0.974197 -3.20741,0.454993 -3.91072,-0.617349 -7.45146,-0.855063 -7.44641,-0.499975 0,0.142094 0.60777,0.498319 1.34584,0.791728 0.96193,0.382377 1.04584,0.539372 0.29601,0.554291 -0.82411,0.01714 -0.8509,0.14443 -0.12641,0.603301 0.50592,0.320357 1.35333,0.489758 1.88323,0.376468 1.30098,-0.278491 3.02751,0.880133 2.48047,1.664936 -0.25185,0.361168 0.28968,1.014594 1.2646,1.526522 l 1.70515,0.895086 -2.27792,0.243095 -2.27734,0.243086 2.87451,0.242572 c 3.28723,0.277403 7.2886,1.698134 5.75213,2.042359 -0.59514,0.133385 -0.45353,0.22489 0.36926,0.238661 0.73408,0.01256 1.3374,0.226383 1.34094,0.475752 0,0.270006 0.72095,0.351736 1.7723,0.202042 0.97072,-0.138202 3.97487,-0.01181 6.67565,0.280475 l 4.91076,0.531848 -7.19043,-0.107483 c -12.44133,-0.185933 -6.71877,0.644816 8.3905,1.218118 21.28179,0.807507 39.3828,0.92659 70.87963,0.466268 23.49226,-0.343323 26.90094,-0.459901 19.12432,-0.654029 -5.20535,-0.129931 -13.27028,-0.240369 -17.92246,-0.24545 -9.31571,-0.0101 21.40026,-0.68672 63.69628,-1.402997 16.981275,-0.28759 28.968292,-0.319362 31.945459,-0.08468 5.168056,0.407501 6.905962,0.192993 4.840427,-0.5975 -1.170389,-0.447794 -1.061008,-0.529945 1.023906,-0.769565 1.886463,-0.216864 2.253462,-0.42775 1.914604,-1.100394 -0.231235,-0.457635 -1.037198,-0.827465 -1.792647,-0.821839 -1.912546,0.01449 -3.791694,-0.398201 -3.797874,-0.833665 -0.01021,-0.475192 7.748528,-0.531704 10.086839,-0.07361 1.464924,0.287103 1.821824,0.216795 1.896048,-0.373752 0.0494,-0.400039 -0.65896,-0.928398 -1.576362,-1.174092 -1.39276,-0.373117 -1.132867,-0.41095 1.578012,-0.229706 3.822409,0.255585 3.872925,-0.378117 0.134327,-1.673053 -1.27204,-0.440539 -2.510985,-1.200176 -2.753148,-1.688076 -0.243294,-0.487901 -1.099574,-1.200443 -1.906461,-1.583375 -1.751728,-0.83183 -1.893062,-1.384483 -0.356591,-1.395936 0.681946,-0.0051 0.944826,-0.246908 0.672048,-0.618698 -0.324633,-0.442536 0.07714,-0.614244 1.464513,-0.624578 l 1.912441,-0.01449 -2.154398,-1.21129 c -1.184826,-0.666189 -2.531401,-1.208463 -2.992115,-1.205014 -0.460917,0.003 -0.840194,-0.17783 -0.843591,-0.402808 0,-0.22499 -0.749267,-0.403536 -1.657911,-0.396765 -2.340064,0.01755 -1.517603,-0.240967 1.909245,-0.599736 2.179139,-0.228138 2.787788,-0.180575 2.374497,0.185669 -0.354015,0.314007 -0.172678,0.415564 0.500815,0.280281 0.581124,-0.116586 1.660595,0.06422 2.399754,0.401554 1.864092,0.851663 1.679146,0.01896 -0.234531,-1.060676 -0.862051,-0.48603 -2.326043,-0.889782 -3.253553,-0.897221 -3.329016,-0.02652 -6.73669,-0.245162 -7.141736,-0.457776 -0.696999,-0.365909 6.504116,-0.852428 9.311799,-0.629161 1.566779,0.124541 2.463674,0.05466 2.197904,-0.171108 -0.247934,-0.209813 -0.94318,-0.377837 -1.5475,-0.373333 -0.604217,0.0051 -1.101219,-0.175892 -1.104518,-0.40088 -0.0101,-0.406551 4.179412,-0.67152 8.984385,-0.568851 1.381626,0.02945 2.335524,-0.09649 2.11955,-0.28009 -0.215771,-0.183533 -3.512001,-0.429205 -7.32462,-0.545915 -3.812612,-0.116749 -7.689559,-0.433928 -8.615215,-0.704968 l -1.682957,-0.492814 1.713579,-0.152536 c 0.942457,-0.08407 1.711201,-0.298276 1.708629,-0.476406 0,-0.17816 -0.860706,-0.229527 -1.9077,-0.11411 -1.084515,0.119417 -1.906048,0.01884 -1.909664,-0.234227 0,-0.244147 0.509484,-0.34179 1.140502,-0.216984 0.630813,0.124868 1.144104,0.0231 1.140498,-0.225885 0,-0.249069 0.736998,-0.458379 1.645331,-0.465153 2.941291,-0.02198 0.304634,-0.684289 -3.042524,-0.764246 -0.54927,-0.01312 -0.770812,-0.225706 -0.492777,-0.472386 0.326697,-0.289551 0.770092,-0.309947 1.250702,-0.05771 0.480711,0.252377 1.531107,0.225399 2.962834,-0.07603 2.792734,-0.588118 2.84418,-1.101925 0.11062,-1.119007 -1.858113,-0.0116 -1.923887,-0.05435 -0.577109,-0.376048 1.268228,-0.302907 1.104419,-0.364594 -0.9907,-0.372963 -1.380907,-0.0051 -2.927688,-0.19443 -3.43757,-0.419824 -0.509579,-0.225373 -1.723684,-0.753472 -2.69779,-1.173572 -1.592964,-0.686955 -1.643374,-0.803202 -0.502268,-1.155919 0.99628,-0.30788 0.553194,-0.450465 -2.061917,-0.663658 -1.832131,-0.149353 -3.906633,-0.292398 -4.61003,-0.317921 -0.703591,-0.02551 -1.096478,-0.208449 -0.873069,-0.406515 0.223286,-0.198056 1.094513,-0.268844 1.935942,-0.157329 2.076462,0.275323 4.564768,-0.595468 3.545508,-1.24079 -0.560197,-0.354626 -0.126079,-0.566155 1.60688,-0.783705 2.846859,-0.357322 2.444803,-0.710655 -0.942356,-0.828261 -1.35843,-0.04729 -2.598407,-0.287181 -2.755626,-0.533341 -0.157106,-0.246158 -0.761221,-0.444033 -1.341931,-0.439689 -0.581536,0.0051 -0.879677,-0.245554 -0.663289,-0.555933 0.215865,-0.310089 -0.165151,-0.674297 -0.848132,-0.809326 -0.980806,-0.194057 -1.132141,-0.06714 -0.722151,0.606642 0.505146,0.829737 0.480714,0.832546 -0.923491,0.106622 -0.918952,-0.475015 -1.118742,-0.79294 -0.550503,-0.876113 1.207607,-0.176725 1.837803,-2.139945 0.684112,-2.131332 -0.490509,0.004 -1.561939,-0.253896 -2.380577,-0.572317 -1.465132,-0.569868 -1.46245,-0.593397 0.164428,-1.497524 1.605334,-0.891982 1.712653,-0.898157 3.712825,-0.21342 1.132762,0.387855 1.82285,0.50374 1.533064,0.257546 -0.334325,-0.284145 0.255662,-0.462922 1.614818,-0.489545 2.042543,-0.04021 2.061926,-0.0584 0.420304,-0.399062 -1.149363,-0.238548 -1.72564,-0.701125 -1.735643,-1.393011 -0.0101,-0.612699 -0.448862,-1.032615 -1.077092,-1.027936 -0.584114,0.0051 -1.263483,-0.266718 -1.509672,-0.602416 -0.246591,-0.335678 -0.94472,-0.606596 -1.551726,-0.60207 -0.607304,0.0051 -1.228634,-0.186847 -1.381001,-0.425238 -0.152169,-0.238382 -3.247678,-0.55648 -6.87886,-0.706861 -4.474565,-0.185319 -7.009813,-0.487467 -7.867183,-0.937692 -1.39764,-0.733905 -1.67962,-0.753435 -8.77647,-0.608674 -2.72306,0.05545 -4.72578,-0.02228 -4.45144,-0.172695 0.55492,-0.304185 6.70133,-0.643528 16.879604,-0.931976 6.830296,-0.193524 10.258797,-0.700593 4.444455,-0.657212 -1.747288,0.01298 -3.179537,-0.171594 -3.183033,-0.410282 0,-0.28241 -1.757805,-0.350428 -5.021046,-0.19476 -3.77079,0.179978 -4.92711,0.11391 -4.66274,-0.265762 0.43892,-0.629812 -2.49083,-0.770622 -3.7829,-0.181809 -1.29926,0.591952 -4.45706,0.314653 -4.46716,-0.392248 0,-0.318745 -0.52426,-0.651039 -1.15458,-0.738484 -1.0187,-0.141307 -1.0183,-0.111778 0,0.266431 0.92451,0.341983 0.72974,0.429808 -0.99167,0.447691 -1.1776,0.01152 -1.94988,-0.147599 -1.71598,-0.355107 0.23402,-0.20756 -0.52304,-0.569103 -1.6819,-0.803453 -1.6998,-0.343517 -0.9254,-0.400794 3.99382,-0.295445 4.30857,0.09235 5.42808,0.02904 3.80957,-0.214846 -1.5654,-0.235926 0.56827,-0.33212 6.7268,-0.303322 4.960998,0.02309 9.252831,0.212165 9.537671,0.419897 0.592772,0.43259 3.802618,0.610886 5.430216,0.301695 1.271321,-0.241526 -1.865943,-1.212681 -4.723839,-1.462321 -0.956067,-0.08367 0.944112,-0.185095 4.222407,-0.225748 3.278495,-0.04093 6.164221,-0.185611 6.41319,-0.322049 0.248861,-0.136361 -0.548349,-0.253598 -1.771618,-0.260274 -1.223285,-0.0071 -2.912638,-0.156185 -3.75375,-0.332218 -1.294319,-0.270773 -1.091121,-0.369215 1.319453,-0.639698 1.566888,-0.175819 3.416443,-0.207415 4.11004,-0.07017 1.054931,0.208698 1.101941,0.148841 0.288242,-0.366322 -0.534943,-0.338666 -2.217389,-0.619413 -3.738805,-0.623888 -2.182537,-0.0061 -2.445421,-0.08018 -1.246059,-0.349557 1.206266,-0.270995 0.732357,-0.409298 -2.29708,-0.67007 -4.923933,-0.423861 -35.596168,-0.01825 -36.159628,0.478313 -0.23553,0.207818 -1.28507,0.469742 -2.33178,0.5821 -1.61153,0.172973 -1.52331,0.209986 0.57519,0.241511 1.36348,0.02046 2.47673,-0.100731 2.47373,-0.269573 -0.0103,-0.482779 7.93093,-0.125773 8.65653,0.389339 0.41286,0.292995 0.49847,0.213154 0.23461,-0.218502 -0.3577,-0.584825 0.35288,-0.704926 5.06251,-0.855996 7.939,-0.254651 18.789198,0.149581 19.845569,0.739367 0.718647,0.40137 0.115053,0.457542 -2.951491,0.274615 -2.120379,-0.126456 -5.550598,-0.07798 -7.623638,0.107358 -3.56267,0.318863 -3.38433,0.345962 3.25827,0.495381 4.22928,0.09498 7.420576,0.365141 8.016027,0.678165 0.807616,0.424477 -0.482161,0.524633 -7.016395,0.544743 -4.403192,0.0138 -12.120302,0.241335 -17.149122,0.506281 -11.4081,0.600924 -13.34541,0.625694 -11.81657,0.150931 0.626,-0.194457 4.03303,-0.495008 7.57044,-0.667807 3.53797,-0.172844 6.60947,-0.411426 6.82622,-0.530172 0.63961,-0.350564 -16.11242,0.38548 -18.51935,0.813693 -1.21284,0.215793 -3.73444,0.403754 -5.60356,0.417698 -2.8276,0.02117 -3.3171,0.136701 -2.91268,0.688158 0.4203,0.572804 -0.0103,0.636104 -3.15207,0.466158 -6.99633,-0.378077 -10.28028,-1.032387 -5.36596,-1.069056 1.50333,-0.01106 3.33069,-0.148222 4.06063,-0.304366 0.97566,-0.208876 1.16397,-0.1395 0.71088,0.262449 -0.42797,0.379325 -0.32489,0.447162 0.33606,0.221865 0.52406,-0.178523 2.71741,-0.487588 4.87366,-0.68681 l 3.92119,-0.362182 -3.49967,0.10172 c -2.98912,0.0872 -3.45038,-0.0021 -3.16185,-0.613765 0.29813,-0.632268 -0.1613,-0.691651 -3.94124,-0.509194 -3.17426,0.153253 -4.28033,0.06896 -4.28589,-0.32667 -0.0103,-0.615387 6.98586,-1.231007 7.6431,-0.672653 0.22805,0.193909 1.69449,0.428094 3.25857,0.520425 1.6399,0.09669 2.65726,0.0091 2.40201,-0.20775 -0.2427,-0.20661 0.0103,-0.397345 0.556,-0.42388 0.54866,-0.02642 0.13772,-0.178651 -0.91313,-0.338051 -1.05074,-0.159438 -2.55003,-0.111498 -3.33119,0.106467 -0.95126,0.26537 -1.26249,0.25583 -0.94117,-0.02904 0.66805,-0.592521 -0.2193,-0.800266 -4.44972,-1.040911 -3.07511,-0.174964 -3.59465,-0.108817 -3.21535,0.408453 0.36032,0.491078 -0.20477,0.623218 -2.76342,0.646756 -1.76918,0.01642 -3.98691,0.146317 -4.92859,0.289018 -1.06427,0.161337 -1.71434,0.07744 -1.71849,-0.22147 0,-0.264494 0.31405,-0.377409 0.70615,-0.250845 0.3922,0.12649 0.90604,0.05904 1.14189,-0.15016 0.25326,-0.224558 -1.40684,-0.277146 -4.0544,-0.128457 -5.88228,0.33025 -17.50465,-0.178432 -14.20418,-0.621757 l 2.28317,-0.306646 -2.28893,-0.09569 c -1.25885,-0.05254 -2.8033,-0.06533 -3.43163,-0.02773 -6.66544,0.395721 -17.7081,0.543581 -16.81311,0.225153 0.72873,-0.259293 -0.86482,-0.3649 -4.74482,-0.314378 -3.76662,0.0491 -5.66923,0.223162 -5.35509,0.490096 0.29924,0.25446 -0.0272,0.312241 -0.84789,0.149971 -0.73429,-0.145277 -3.36549,-0.248985 -5.84706,-0.230474 -3.6083,0.02683 -4.51446,-0.09599 -4.52173,-0.614028 -0.0103,-0.356244 -0.43696,-0.560138 -0.95971,-0.453087 -0.52275,0.107038 -0.83619,0.446858 -0.69698,0.755226 0.20249,0.449106 0.0575,0.460347 -0.72368,0.05658 -0.53706,-0.277257 -2.70926,-0.496777 -4.82728,-0.487842 -2.58635,0.01151 -3.47619,-0.104718 -2.71007,-0.352501 0.62691,-0.202823 2.60695,-0.235989 4.39971,-0.07361 1.7926,0.162282 3.44152,0.133635 3.66423,-0.06392 0.2226,-0.19736 1.31057,-0.365573 2.41837,-0.373847 1.30542,-0.0101 1.75035,-0.153156 1.26561,-0.407617 -0.89852,-0.471771 -21.90093,-0.591453 -24.0891,-0.137297 z m 13.03732,2.014587 c 5.98913,0.498472 11.10054,1.017323 11.35927,1.152998 0.60631,0.318427 -14.21028,6.99e-4 -16.22559,-0.348022 -1.91376,-0.331028 -2.4468,-0.371262 -5.62769,-0.424601 -2.19467,-0.03699 -2.43443,-0.134308 -1.63187,-0.663806 0.517,-0.341369 1.0071,-0.621206 1.08846,-0.621791 0.0798,-5.97e-4 5.04877,0.406756 11.03742,0.905222 z m -21.59344,1.027539 c -1.44355,0.600133 -3.46396,0.838138 -3.47054,0.408815 0,-0.247556 3.02553,-0.973673 4.1796,-1.001859 0.41903,-0.0107 0.0979,0.256647 -0.70906,0.593044 z m 12.22924,-0.008 c -0.21012,0.1152 -1.85389,0.369278 -3.65261,0.564619 -1.79907,0.195346 -3.86929,0.484451 -4.60095,0.642467 -1.00118,0.216246 -1.33357,0.08064 -1.34245,-0.548653 -0.0103,-0.644165 0.55594,-0.869632 2.46408,-0.98268 3.002,-0.177821 7.66124,0.03393 7.13193,0.324247 z m 5.85665,0.761472 c -0.93642,0.104064 -2.65178,0.119354 -3.81181,0.03469 -1.16036,-0.08548 -0.39451,-0.170584 1.70234,-0.189266 2.09653,-0.01884 3.04589,0.05102 2.10947,0.155241 z m 60.24136,-0.06008 c -0.51446,0.115945 -1.54358,0.130416 -2.28712,0.03234 -0.74316,-0.09811 -0.32232,-0.19303 0.93562,-0.210754 1.25794,-0.01713 1.86621,0.0627 1.3515,0.178534 z m 17.72573,0.826785 c 0.26225,0.22304 0.11441,0.408246 -0.33037,0.41155 -0.44392,0.003 -0.8098,-0.178028 -0.81309,-0.403034 0,-0.224983 0.14535,-0.410189 0.33016,-0.411567 0.18501,-0.0021 0.55079,0.17997 0.8133,0.403051 z m -8.57325,0.334889 c -0.52276,0.117377 -1.38025,0.123787 -1.90592,0.01441 -0.52598,-0.109582 -0.0963,-0.205633 0.94974,-0.213439 1.04843,-0.008 1.47873,0.08204 0.95618,0.199231 z m -92.80001,2.466818 c -0.25579,0.226923 -0.87392,0.412798 -1.37348,0.413081 -0.54532,7.48e-4 -0.45357,-0.161166 0.22999,-0.404568 1.45743,-0.518781 1.72157,-0.520754 1.14359,-0.008 z m 122.37531,-0.503685 c -1.47058,0.523535 -2.27976,0.529574 -2.28732,0.01713 0,-0.224974 0.76642,-0.412002 1.70981,-0.415587 1.38704,-0.0051 1.49749,0.07088 0.57751,0.398537 z m 4.02443,1.468269 c -0.52254,0.11738 -1.37993,0.123777 -1.90591,0.0144 -0.52578,-0.109568 -0.0973,-0.205622 0.94995,-0.213463 1.04832,-0.008 1.47872,0.08215 0.95596,0.199257 z m -123.31989,1.462442 c 0.27998,0.238107 -0.0596,0.295485 -0.84063,0.141276 -0.89035,-0.176144 -1.13254,-0.107079 -0.75404,0.214853 0.34168,0.290411 0.0596,0.478185 -0.7235,0.484018 -1.05318,0.008 -1.11426,-0.101153 -0.34178,-0.611115 1.08948,-0.719335 1.99191,-0.797017 2.65995,-0.229064 z m 130.1876,-1.104515 c -0.52246,0.117399 -1.37985,0.123789 -1.90602,0.0144 -0.52569,-0.10959 -0.098,-0.205632 0.95004,-0.213449 1.04833,-0.008 1.47872,0.08188 0.95598,0.199223 z m -13.71746,0.511428 c -0.52264,0.117385 -1.3806,0.123787 -1.90649,0.0144 -0.52578,-0.10958 -0.0959,-0.205649 0.95032,-0.213427 1.04853,-0.008 1.47832,0.08204 0.95617,0.199201 z m 34.697616,1.35387 c -0.251326,0.1378 -0.908748,0.157227 -1.460965,0.04325 -0.610191,-0.126095 -0.430761,-0.224338 0.457198,-0.25056 0.803358,-0.02379 1.255093,0.06946 1.003767,0.207366 z m -149.986616,1.441438 c 0.0103,0.388075 -2.27413,0.600649 -2.68608,0.25049 -0.25094,-0.213304 0.25034,-0.393114 1.11376,-0.399564 0.86355,-0.0061 1.571,0.06088 1.57232,0.149074 z m -1.70662,1.735571 c -0.25135,0.13779 -0.90898,0.157212 -1.46098,0.04325 -0.60984,-0.126107 -0.43091,-0.224306 0.45712,-0.250557 0.80334,-0.02379 1.25521,0.06946 1.00386,0.20739 z m 0.98532,1.133604 c 0,0.08851 -0.5285,0.274369 -1.17725,0.413195 -0.67663,0.144828 -0.98344,0.07851 -0.71988,-0.155415 0.44227,-0.392039 1.8925,-0.589102 1.89713,-0.25778 z m 2.14126,4.161532 c -0.25135,0.137781 -0.90883,0.157242 -1.46082,0.04325 -0.61026,-0.126097 -0.4309,-0.224325 0.45701,-0.250582 0.80344,-0.02379 1.25526,0.06946 1.00381,0.207383 z m -1.87799,0.856005 c -0.52249,0.117383 -1.38056,0.123788 -1.90633,0.01441 -0.52578,-0.109574 -0.0959,-0.205612 0.95032,-0.213443 1.04837,-0.008 1.47825,0.08214 0.95601,0.199222 z m 152.296557,-0.997739 c 1.400491,0.47286 0.196802,0.481837 -1.906168,0.0144 -1.008756,-0.224315 -1.140558,-0.350753 -0.386818,-0.37121 0.628897,-0.01724 1.660628,0.143588 2.292986,0.356996 z m -152.404867,6.703685 c 0,0.08851 -0.51247,0.164629 -1.14129,0.169318 -0.62899,0.0051 -1.14623,-0.169774 -1.14935,-0.387702 0,-0.217949 0.51036,-0.294116 1.14142,-0.169305 0.63061,0.124861 1.148,0.299279 1.14922,0.387689 z m 169.506638,2.165694 c 1.237102,0.75919 1.236474,0.799213 -0.0101,0.706479 -1.328441,-0.09862 -1.707288,-0.341053 -1.718225,-1.09903 -0.01021,-0.577248 0.240821,-0.520653 1.729255,0.392551 z m -3.451282,0.276585 c -0.251226,0.137776 -0.908644,0.157228 -1.460799,0.04325 -0.609985,-0.126118 -0.430809,-0.224328 0.457218,-0.250593 0.80339,-0.02379 1.255122,0.06957 1.003581,0.20739 z m -181.140726,2.229017 c 0.95773,0.641718 0.9307,0.656396 -0.28581,0.15659 -1.2779,-0.524909 -1.68621,-0.857808 -1.05893,-0.8625 0.15829,-0.0022 0.76333,0.316486 1.34474,0.705918 z m -9.70716,0.809608 c 0.26553,0.362094 0.1402,0.527232 -0.29413,0.387158 -0.41646,-0.134359 -0.75975,-0.417544 -0.76311,-0.629241 -0.0103,-0.588398 0.54,-0.462823 1.05724,0.242083 z m 17.27092,1.690902 c 0,0.225003 -0.14518,0.410227 -0.3301,0.411588 -0.185,0.0022 -0.55098,-0.179988 -0.8136,-0.403044 -0.26205,-0.223048 -0.11372,-0.408251 0.33057,-0.411587 0.44393,-0.003 0.80991,0.178062 0.81313,0.403043 z m 1.54739,1.21582 c 1.20604,-0.0091 2.4073,0.166132 2.66955,0.3892 0.98694,0.838645 -6.48398,0.09407 -8.39956,-0.837152 -0.42235,-0.205312 0.20063,-0.184826 1.38465,0.04547 1.18413,0.230331 3.13926,0.411429 4.34536,0.402443 z m -4.4484,2.668852 c 2.26303,0.532668 3.6005,0.978898 2.97139,0.991624 -1.33498,0.02692 -7.64531,-1.40115 -7.64996,-1.731398 -0.0103,-0.342341 0.25659,-0.300954 4.67857,0.739774 z m 9.07727,1.387755 1.91098,0.31329 -1.90623,0.02653 c -1.04812,0.01421 -2.59412,-0.126918 -3.43566,-0.313945 l -1.53005,-0.340185 1.5252,8.12e-4 c 0.83886,-1.11e-4 2.38482,0.141651 3.43576,0.313963 z m 4.5189,1.831092 c 0.18679,0.09791 -0.66077,0.214687 -1.88354,0.259248 -2.80151,0.102049 -3.16668,0.07993 -6.42315,-0.390153 -2.19187,-0.316434 -1.71429,-0.355547 2.64621,-0.216716 2.92651,0.09316 5.47355,0.249601 5.66048,0.347621 z m 172.629169,2.027856 c -0.522356,0.11737 -1.380079,0.123791 -1.906053,0.01441 -0.525653,-0.109581 -0.09881,-0.205632 0.950189,-0.213447 1.04844,-0.008 1.478636,0.08215 0.955864,0.199223 z m -170.759669,2.910178 c -0.52265,0.117404 -1.38014,0.12379 -1.90592,0.01441 -0.52587,-0.109564 -0.0961,-0.205615 0.94974,-0.213453 1.04853,-0.008 1.47883,0.08193 0.95618,0.199228 z m 1.39535,4.219571 c 0.90626,0.0022 0.93622,0.07582 0.14526,0.352249 -0.96987,0.338849 -2.37118,0.360251 -8.3354,0.127411 l -2.86099,-0.111626 3.42678,-0.319934 c 1.88455,-0.17594 4.11397,-0.259489 4.9535,-0.185687 0.83985,0.07371 2.04203,0.135819 2.67085,0.137576 z m 5.41177,0.336479 c -0.58812,0.20515 -1.5306,0.281702 -2.09467,0.170084 -1.61715,-0.31988 -1.20995,-0.523533 1.06717,-0.533717 1.52563,-0.0071 1.80563,0.09215 1.0275,0.363592 z m 161.600735,1.280892 c -0.625662,0.222773 -1.824195,0.394652 -2.663149,0.381938 -1.256676,-0.01904 -1.190387,-0.08347 0.376069,-0.364888 2.688926,-0.483291 3.616334,-0.49021 2.28708,-0.01714 z m 4.585798,5.140426 c 0.175778,0.07775 -1.367187,0.132661 -3.429421,0.121932 -2.062026,-0.01075 -3.145833,-0.108604 -2.408525,-0.217544 0.73752,-0.108965 1.15101,-0.35945 0.919164,-0.556688 -0.367833,-0.312608 4.067047,0.275486 4.918782,0.652277 z m -170.081543,6.978036 c -0.25135,0.137774 -0.90842,0.157229 -1.46058,0.04325 -0.61019,-0.126097 -0.43083,-0.224335 0.45712,-0.250567 0.8035,-0.02379 1.2548,0.06946 1.00346,0.207365 z m 45.38849,0.228883 c 2.12286,-0.0145 3.62446,0.162929 3.6282,0.426864 0,0.316405 -2.77115,0.398502 -9.33678,0.276124 -5.13859,-0.09569 -13.80496,-0.251488 -19.25814,-0.346041 -5.45366,-0.09458 -10.08819,-0.270079 -10.29952,-0.390021 -0.2118,-0.119976 6.82222,-0.156346 15.63024,-0.08095 8.80776,0.07532 17.64407,0.126813 19.636,0.1139 z m 29.98148,-62.934073 c 0.95012,0.09083 2.32229,0.07673 3.05,-0.03026 0.72714,-0.107794 -0.0495,-0.182104 -1.72724,-0.16503 -1.67716,0.01724 -2.2723,0.105243 -1.32276,0.196011 z m -5.52285,0.979197 c 0.26256,0.223029 0.62864,0.404403 0.8136,0.403021 0.18501,-0.0021 0.33323,-0.186596 0.33,-0.411568 0,-0.224975 -0.36911,-0.406344 -0.81299,-0.40303 -0.44434,0.003 -0.59276,0.188496 -0.33061,0.411577 z m 19.06596,-0.146826 c -0.26356,0.233875 0.0413,0.300194 0.71998,0.155424 1.31679,-0.281822 1.55393,-0.576817 0.45762,-0.568633 -0.39483,0.003 -0.92464,0.188893 -1.1776,0.413209 z m -59.99456,0.731619 c 0.552,0.114037 1.20954,0.09447 1.46099,-0.04325 0.25135,-0.137785 -0.20063,-0.23113 -1.00386,-0.207354 -0.88803,0.02622 -1.06739,0.124527 -0.45713,0.250562 z m 53.05396,-0.334392 c 0.37587,0.319668 5.0365,0.115685 5.03176,-0.220304 0,-0.087 -1.22355,-0.148984 -2.7159,-0.13786 -1.49246,0.01105 -2.53482,0.17231 -2.31586,0.358164 z m 33.87449,0.504181 c 0.55199,0.114 1.20954,0.09447 1.46078,-0.04325 0.25154,-0.137807 -0.20012,-0.231138 -1.00377,-0.207398 -0.88791,0.02622 -1.06727,0.124549 -0.45701,0.250596 z m -5.74536,0.456024 c 0.74306,0.09811 1.77214,0.08388 2.28711,-0.03235 0.5141,-0.11593 -0.0929,-0.196235 -1.3514,-0.178501 -1.25784,0.01713 -1.67935,0.112575 -0.93571,0.210734 z m 5.92572,2.136942 c -1.64488,0.304315 -1.51597,0.341757 0.95728,0.277603 1.57172,-0.04093 2.85587,-0.220641 2.85334,-0.399628 -0.0103,-0.391638 -1.24927,-0.351822 -3.81062,0.121953 z m -11.04951,0.481552 c -0.2556,0.226909 0.2412,0.407331 1.10449,0.400884 0.86352,-0.0061 1.56734,-0.195819 1.56421,-0.420792 0,-0.224975 -0.50037,-0.405369 -1.10487,-0.400853 -0.60393,0.0051 -1.30795,0.193831 -1.56383,0.420761 z m 4.40233,0.250665 c 0.74363,0.09811 1.77292,0.08388 2.28722,-0.03228 0.51476,-0.115934 -0.0929,-0.196243 -1.35151,-0.178512 -1.25783,0.01713 -1.67867,0.112556 -0.93571,0.210725 z m 31.10011,2.915547 c 0,0.087 1.014472,0.230196 2.25174,0.318286 1.237299,0.08811 2.073893,0.01054 1.858741,-0.171972 -0.382565,-0.32515 -4.114961,-0.458012 -4.110481,-0.146314 z m -1.65419,0.95191 c 0.552,0.114017 1.20951,0.09447 1.46094,-0.04325 0.25134,-0.137786 -0.20039,-0.231142 -1.00382,-0.207389 -0.88802,0.02611 -1.06737,0.124553 -0.45712,0.250589 z m 7.780826,0.88986 c 0,0.224985 0.500289,0.40536 1.104508,0.400855 0.604319,-0.0051 1.308129,-0.193866 1.5639,-0.420784 0.255967,-0.226918 -0.241035,-0.407325 -1.104527,-0.400874 -0.863276,0.0061 -1.567189,0.195792 -1.563881,0.420803 z m -6.766656,2.245166 c 0.1759,0.08069 1.08725,0.354316 2.025135,0.608004 1.432905,0.387722 1.632595,0.362444 1.250437,-0.158536 -0.250309,-0.340865 -1.161325,-0.614457 -2.024857,-0.608037 -0.863875,0.0061 -1.426705,0.07755 -1.250715,0.158549 z m 15.810514,1.875593 c 0.895866,0.56756 3.996117,1.241943 3.990765,0.868109 0,-0.08579 -1.121733,-0.456701 -2.490059,-0.824584 -2.103263,-0.565452 -2.335119,-0.572176 -1.500706,-0.04356 z m -169.180074,5.126287 c 0.55201,0.114018 1.20955,0.09447 1.46089,-0.04325 0.25134,-0.137783 -0.20052,-0.23114 -1.00386,-0.207398 -0.88777,0.02611 -1.0669,0.124571 -0.45703,0.250598 z m 176.13181,2.768838 c 0.525664,0.109575 1.383493,0.103196 1.905951,-0.01441 0.522674,-0.117371 0.09276,-0.207013 -0.955859,-0.1992 -1.048542,0.008 -1.475952,0.103784 -0.950092,0.213426 z m -191.88915,4.996855 c 10e-4,0.08498 0.528,0.383177 1.17073,0.662785 0.97724,0.425053 1.08838,0.398913 0.67866,-0.159514 -0.41863,-0.570356 -1.85591,-0.961592 -1.84939,-0.503271 z m 199.403353,0.0021 c 0.266805,0.226701 0.802772,0.303866 1.191328,0.171522 1.052457,-0.358552 0.851836,-0.602569 -0.487416,-0.592565 -0.653811,0.0051 -0.970499,0.194344 -0.703912,0.421043 z m -1.495435,2.573092 c 2.133879,0.810791 4.974038,1.221929 4.966824,0.718955 -0.01021,-0.544173 -0.63205,-0.712584 -3.827559,-1.033374 -2.473573,-0.248245 -2.558416,-0.224799 -1.139265,0.314419 z m -203.985158,4.06683 c 0.44232,0.446727 1.52943,1.267052 2.41635,1.822964 1.10035,0.689707 1.35715,0.752772 0.80859,0.198526 -0.44191,-0.44671 -1.52934,-1.26708 -2.41588,-1.822994 -1.10032,-0.6897 -1.35753,-0.752761 -0.80906,-0.198496 z m 213.793755,0.938933 c 0.743598,0.09811 1.772651,0.08388 2.287391,-0.03229 0.514317,-0.11595 -0.09578,-0.196222 -1.35174,-0.178515 -1.257806,0.01723 -1.678934,0.112552 -0.935651,0.210731 z m 2.754492,6.921807 c 0.525763,0.109568 1.383483,0.103179 1.905842,-0.01441 0.52267,-0.117385 0.09175,-0.207054 -0.95586,-0.199201 -1.048231,0.008 -1.47575,0.103765 -0.949982,0.213416 z m 3.241487,0.07017 c 0,0.200909 0.521336,0.467432 1.152356,0.592216 0.698853,0.138298 1.143898,-0.008 1.138537,-0.373834 0,-0.330399 -0.523392,-0.596938 -1.152452,-0.592238 -0.629164,0.0051 -1.141321,0.172927 -1.138441,0.373856 z m 2.323576,2.481114 c -0.683905,0.243402 -0.775558,0.404867 -0.230517,0.404564 0.499272,-5.51e-4 1.117613,-0.186175 1.373275,-0.413082 0.57762,-0.512248 0.313814,-0.510271 -1.143483,0.008 z m 4.015397,-0.155493 c 0.743281,0.09811 1.772439,0.08387 2.286764,-0.03231 0.514835,-0.115944 -0.09578,-0.196206 -1.351219,-0.178512 -1.25791,0.01726 -1.679038,0.112564 -0.935545,0.210759 z m -9.47964,1.293991 c 0.552154,0.114002 1.209569,0.09447 1.460799,-0.04325 0.251749,-0.137782 -0.199169,-0.23115 -1.003793,-0.207365 -0.887822,0.02611 -1.067098,0.124552 -0.457006,0.250568 z m 8.524701,0.249217 c 1.047612,0.301997 2.201207,0.447943 2.563981,0.324347 0.911529,-0.310514 -1.087612,-0.916889 -2.944075,-0.893028 -1.349564,0.01783 -1.305955,0.08276 0.380094,0.568681 z m -14.287797,13.270133 -1.896047,0.611398 1.901924,-0.286623 c 2.119035,-0.319338 2.688922,-0.517029 2.211817,-0.767507 -0.177315,-0.09285 -1.174721,0.106496 -2.217694,0.442732 z m -189.955751,3.486811 c 0.55209,0.114014 1.20958,0.09447 1.46091,-0.04325 0.25135,-0.137795 -0.20046,-0.231151 -1.0038,-0.20737 -0.88802,0.02623 -1.06728,0.124545 -0.45711,0.250579 z m 152.65343,0.62745 c 0.63233,0.213413 3.379289,0.349599 6.104494,0.302671 l 4.955069,-0.08548 -3.816729,-0.290148 c -5.701934,-0.433462 -8.654344,-0.403749 -7.242834,0.0728 z m 16.41453,-0.14209 c -0.318139,0.282248 1.028431,0.421074 3.877764,0.399831 5.097131,-0.0382 5.152807,-0.231758 0.167737,-0.582125 -2.212337,-0.155477 -3.742212,-0.0866 -4.045604,0.182312 z m -51.95357,0.737028 c 0.36961,0.314183 5.81183,0.114209 5.80668,-0.213377 0,-0.08791 -1.39475,-0.149375 -3.09692,-0.136699 -1.70186,0.01287 -2.92156,0.170251 -2.70976,0.350076 z m 19.72273,-0.194937 c 0.73518,0.09719 1.93644,0.08841 2.6688,-0.01995 0.73227,-0.108437 0.13066,-0.188072 -1.33717,-0.177125 -1.46764,0.01087 -2.06692,0.09952 -1.33163,0.197035 z m 42.716534,0.09195 c 0.743391,0.09811 1.772453,0.08388 2.287082,-0.03228 0.514415,-0.115937 -0.09477,-0.196222 -1.351631,-0.178511 -1.257706,0.01714 -1.679049,0.112549 -0.935451,0.210724 z"
       id="path966-2-28-8"
       inkscape:connector-curvature="0"
       sodipodi:nodetypes="ccccccccccccccccccccccccccccccccccccccccccccccccccccccscccccccccccccccccccccccccccccccccccccsccccccccccsccccccccccccccccccccccccccccccccscccccccccccccccccccccccccccccccccccccccccccccccccccccccccccccccccccccccccccccccccccccccccccccccccccccccccccccccccccccccccccccccccccccccccccccccccccccccccccccccccsccccccccccccccccccccccccccccccccccccccccccccccccccccccccccccccccccccccccccccccccccccccccccccccccccccccccccccccccccccccccccccccccccccccccccccccccccccccccccccccccccccccccccccccccccccccccccccccccccccccccccccccccccccccccccccccccccccccccccccccccccccccccccccccccccccccccccccccccccccccccccccccccccccccccccccccccccccccccccccccccccccccccccccccccccccccccccccccccccccccccccccccccccccccccccccccccc"
       inkscape:export-xdpi="686.44"
       inkscape:export-ydpi="686.44"
       inkscape:export-filename="C:\Users\Jones Musik\Downloads\Cantopia-Logo 2.0.png" />
    <path
       style="fill:#ffffff;fill-opacity:1;stroke-width:0.54175073"
       d="m -236.54966,-85.185725 c -0.8202,0.17026 -1.7304,0.23236 -2.0229,0.13807 -0.7249,-0.23386 -15.2164,3.64199 -15.9072,4.25448 -0.3038,0.26944 0.399,0.15482 1.5619,-0.25468 1.8293,-0.64419 1.9824,-0.65322 1.1359,-0.067 -1.762,1.2201 0.8718,2.08147 2.9835,0.97577 0.8892,-0.4656 4.638,-1.51812 5.4281,-1.52403 0.1842,-0.002 0.3387,0.25694 0.3433,0.57404 0.01,0.32375 -1.1496,0.75712 -2.6324,0.98836 -1.4524,0.22647 -3.7506,0.87703 -5.1073,1.4457 -1.3566,0.56867 -2.8019,1.03643 -3.2118,1.03948 -0.4099,0.003 -0.9116,0.15305 -1.115,0.33336 -0.2034,0.1803 0.6937,0.27032 1.9933,0.20005 1.2996,-0.0703 1.7778,-0.0283 1.0627,0.0939 -0.7151,0.12187 -1.1168,0.37753 -0.8927,0.5681 0.2242,0.19053 0.8947,0.242201 1.4901,0.11487 0.5953,-0.12743 1.0852,-0.034 1.0887,0.20763 0,0.24159 -0.3461,0.44189 -0.7768,0.4451 -0.4308,0.003 -0.575,0.182871 -0.3205,0.39923 0.2774,0.23585 -0.813,0.42882 -2.723,0.48185 -3.0814,0.0855 -3.0523,0.0957 0.8853,0.30829 l 4.0713,0.21987 -3.3153,0.91107 c -3.1564,0.86742 -3.0626,0.92999 0.4645,0.31003 1.2936,-0.22737 1.5521,-0.11807 1.4884,0.62891 -0.042,0.49724 -0.4081,1.03776 -0.8125,1.20115 -0.436,0.1761 -0.2835,0.30926 0.3745,0.32706 0.6105,0.0165 0.1151,0.282779 -1.1009,0.59166 -1.2376,0.31442 -1.6758,0.56552 -0.9954,0.57046 0.6684,0.005 1.4108,0.27525 1.6496,0.60087 0.2778,0.37858 1.4205,0.58468 3.1693,0.57165 3.8892,-0.029 2.7265,0.33635 -1.9404,0.60973 -2.1713,0.12718 -4.0674,0.29688 -4.2137,0.37709 -0.1462,0.0801 1.4943,0.26821 3.6458,0.41779 l 3.9117,0.27198 -2.535,0.39629 c -1.9257,0.30104 -2.2787,0.48102 -1.4685,0.74872 0.7483,0.24727 0.184,0.36916 -1.8912,0.40847 -2.3346,0.0442 -2.6451,0.12563 -1.4737,0.38602 0.8162,0.18149 2.8155,0.33893 4.4429,0.34988 2.9442,0.0198 2.9498,0.0228 1.1181,0.60075 -1.7783,0.56119 -1.7857,0.58095 -0.2202,0.58285 0.8913,7.41e-4 1.8237,-0.17811 2.0719,-0.39822 0.5544,-0.49159 3.3204,-0.55439 3.3273,-0.0756 0.01,0.5343 -6.0248,0.98268 -6.9173,0.51415 -1.2731,-0.66841 -2.22,-0.44842 -1.1133,0.25867 0.9258,0.59142 0.8103,0.63325 -1.1975,0.43357 -1.2222,-0.12152 -2.8894,-0.33014 -3.7049,-0.46356 -1.197,-0.1958 -1.1561,-0.14016 0.2121,0.28888 0.9323,0.29232 1.5222,0.62627 1.3108,0.74216 -0.2113,0.11586 0.6104,0.12488 1.8262,0.02 1.6756,-0.14464 2.2127,-0.0359 2.2198,0.44947 0.01,0.35215 0.4253,0.63989 0.9338,0.63942 0.6695,-5.29e-4 0.6447,0.0969 -0.09,0.35316 -0.5664,0.19766 -0.7652,0.56569 -0.4502,0.83341 0.7514,0.63868 -3.4195,0.22241 -7.2197,-0.72055 -1.531,-0.3799 -2.7829,-0.63928 -2.782,-0.57642 9e-4,0.0628 1.4244,0.67862 3.1632,1.36834 1.7389,0.68971 2.4942,1.1307 1.6784,0.979919 -0.8158,-0.150789 -2.4514,-0.335939 -3.6347,-0.411479 -1.1832,-0.0755 -2.9371,-0.52474 -3.8975,-0.99821 -2.4656,-1.21556 -2.2757,-0.0727 0.2149,1.29233 1.8758,1.028169 1.9171,1.931229 0.088,1.93225 -0.5895,-6.1e-5 -0.5505,-0.11484 0.1177,-0.34811 0.7907,-0.276071 0.8039,-0.4114 0.063,-0.650279 -0.5543,-0.178822 -1.286,-0.0389 -1.7965,0.343548 -0.7887,0.590851 -0.9797,0.589031 -2.2673,-0.0217 -1.3749,-0.652161 -1.3754,-0.64761 -0.025,0.206359 0.7597,0.480272 1.6453,0.783259 1.968,0.673312 0.3228,-0.109951 0.7999,-0.0195 1.0604,0.202678 1.0941,0.929979 -2.0109,0.833681 -4.4432,-0.13781 -2.0624,-0.823781 -2.5943,-0.9056 -2.5869,-0.39813 0.01,0.351351 -0.3252,0.53095 -0.7339,0.39909 -1.1258,-0.363149 -0.8669,1.510041 0.3917,2.833661 0.6089,0.640451 1.9435,1.5768 2.9658,2.080771 1.0222,0.503967 1.652,1.115107 1.3994,1.358098 -0.2525,0.243001 -0.1918,0.309081 0.1349,0.146881 0.3268,-0.1622 1.8858,0.31727 3.4645,1.065501 1.5788,0.74821 3.2857,1.375129 3.7933,1.393089 0.5076,0.01789 0.093,0.18183 -0.9214,0.364149 -1.6936,0.3044 -1.6327,0.333171 0.7447,0.35206 1.424,0.0113 4.2398,0.34368 6.2574,0.738589 l 3.6684,0.718011 -3.2833,0.337211 -3.2833,0.33723 3.2581,0.496139 c 3.7711,0.574291 5.109,1.096801 2.1235,0.829331 -1.2278,-0.109932 -2.0341,-0.006 -2.0303,0.261401 0.01,0.525089 6.6504,0.307358 7.7257,-0.253212 1.1557,-0.602509 2.0677,-0.41779 0.9534,0.193111 -0.5681,0.311449 -2.9989,0.729999 -5.4018,0.930098 l -4.3689,0.363792 4.0713,0.22412 c 2.604,0.143349 1.2721,0.203661 -3.6958,0.16736 -4.759,-0.0348 -6.9061,0.0575 -5.5439,0.23908 1.2227,0.1627 1.8907,0.32218 1.4844,0.35438 -0.4064,0.0323 -0.237,0.237279 0.3764,0.455719 0.8088,0.288059 0.3756,0.33434 -1.5771,0.16847 -1.5377,-0.130558 -2.8876,-0.0555 -3.1477,0.175199 -0.4121,0.365372 1.8975,0.894022 5.8586,1.341001 1.2952,0.146119 1.2668,0.174591 -0.2254,0.225941 -0.9389,0.0323 -1.4988,0.2358 -1.2442,0.452179 0.603,0.512561 4.8146,0.48115 4.8071,-0.0359 0,-0.21825 1.4919,-0.40798 3.3224,-0.421611 1.8304,-0.0136 3.3306,0.15372 3.3337,0.37198 0,0.218231 -1.3451,0.406861 -2.9961,0.41918 -1.8649,0.014 -2.822,0.17536 -2.5268,0.426251 0.3037,0.258149 -0.6797,0.37288 -2.7254,0.317979 -2.4004,-0.0644 -3.1447,0.05 -2.9771,0.457891 0.1587,0.386659 -0.3256,0.491659 -1.6767,0.36336 -1.045,-0.0993 -2.1029,-5.29e-4 -2.3508,0.219289 -0.2915,0.25849 1.0871,0.306221 3.9027,0.13507 2.5822,-0.15694 3.6031,-0.12991 2.5092,0.0663 -1.6905,0.30341 -1.7207,0.347731 -0.3621,0.531561 0.8152,0.11031 -0.017,0.145028 -1.848,0.0771 -2.2691,-0.0842 -2.9818,-0.008 -2.2369,0.24094 2.0125,0.670801 0.08,0.94497 -3.1109,0.441341 -3.7938,-0.598831 -7.2283,-0.829431 -7.2233,-0.484992 0,0.137832 0.5894,0.483392 1.3054,0.767991 0.9331,0.370911 1.0144,0.523211 0.2871,0.53767 -0.7994,0.01651 -0.8254,0.1401 -0.1224,0.585229 0.4908,0.310751 1.3128,0.475073 1.8265,0.365162 1.2623,-0.270131 2.9368,0.85376 2.4062,1.61503 -0.2443,0.35033 0.2809,0.98416 1.2268,1.480749 l 1.6538,0.868251 -2.2094,0.235799 -2.2093,0.235792 2.7886,0.235299 c 3.1885,0.269079 7.0698,1.647219 5.5794,1.981121 -0.5773,0.129399 -0.4399,0.218159 0.3582,0.231518 0.7121,0.01201 1.2975,0.219591 1.301,0.461481 0,0.261908 0.6991,0.34118 1.7189,0.19599 0.9418,-0.13407 3.856,-0.01159 6.4758,0.27205 l 4.7633,0.515919 -6.9749,-0.104259 c -12.0681,-0.180369 -6.5171,0.62547 8.1392,1.181579 20.6436,0.783312 38.2018,0.898821 68.7543,0.4523 22.7876,-0.333029 26.0943,-0.446109 18.5507,-0.634429 -5.049,-0.126039 -12.8723,-0.233161 -17.3851,-0.23808 -9.0364,-0.01 20.7586,-0.666131 61.7864,-1.360929 16.472295,-0.278982 28.099895,-0.309801 30.987795,-0.082 5.0131,0.395283 6.6989,0.187191 4.6953,-0.579588 -1.1353,-0.43438 -1.0292,-0.514069 0.9932,-0.746501 1.8299,-0.210349 2.1859,-0.414919 1.8572,-1.06739 -0.2243,-0.44391 -1.0061,-0.802669 -1.7389,-0.7972 -1.8552,0.01389 -3.678,-0.38626 -3.684,-0.80868 -0.01,-0.460928 7.5162,-0.51576 9.7844,-0.0715 1.421,0.278509 1.7672,0.210299 1.8392,-0.36254 0.048,-0.388051 -0.6392,-0.90057 -1.5291,-1.138891 -1.351,-0.361928 -1.0989,-0.398629 1.5307,-0.22281 3.7078,0.247911 3.7568,-0.36679 0.1303,-1.622888 -1.2339,-0.427342 -2.4357,-1.164202 -2.6706,-1.637472 -0.236,-0.473268 -1.0666,-1.16444 -1.8493,-1.535899 -1.6992,-0.806881 -1.8363,-1.342972 -0.3459,-1.354082 0.6615,-0.005 0.9165,-0.239498 0.6519,-0.600149 -0.3149,-0.429249 0.075,-0.59581 1.4206,-0.605851 l 1.8551,-0.01389 -2.0898,-1.174962 c -1.1493,-0.646218 -2.4555,-1.172228 -2.9024,-1.1689 -0.4471,0.003 -0.815,-0.17249 -0.8183,-0.390729 0,-0.218239 -0.7268,-0.391429 -1.6082,-0.38486 -2.2699,0.01691 -1.4721,-0.233741 1.852,-0.58175 2.1138,-0.221311 2.7042,-0.17517 2.3033,0.180091 -0.3434,0.304589 -0.1675,0.403109 0.4858,0.271878 0.5637,-0.113088 1.6108,0.0622 2.3278,0.389523 1.8082,0.826119 1.6288,0.01831 -0.2275,-1.02888 -0.8362,-0.471461 -2.2563,-0.863092 -3.156,-0.870321 -3.2292,-0.0258 -6.5347,-0.23781 -6.9276,-0.44405 -0.6761,-0.354931 6.3091,-0.826871 9.0326,-0.610291 1.5198,0.120801 2.3898,0.0532 2.132,-0.16597 -0.2405,-0.203539 -0.9149,-0.366509 -1.5011,-0.362141 -0.5861,0.005 -1.0682,-0.170619 -1.0714,-0.388868 -0.01,-0.394362 4.0541,-0.651391 8.715,-0.551799 1.3402,0.0287 2.2655,-0.0937 2.056,-0.271682 -0.2093,-0.178039 -3.4067,-0.416349 -7.105,-0.529559 -3.6983,-0.113249 -7.459,-0.420909 -8.3569,-0.683831 l -1.6325,-0.47802 1.6622,-0.147979 c 0.9142,-0.0814 1.6599,-0.289319 1.6574,-0.462121 0,-0.172821 -0.8349,-0.222629 -1.8505,-0.110689 -1.052,0.11584 -1.8489,0.0182 -1.8524,-0.22719 0,-0.236841 0.4942,-0.331552 1.1063,-0.210491 0.6119,0.121131 1.1098,0.02241 1.1063,-0.21911 0,-0.241599 0.7149,-0.44464 1.596,-0.45121 2.8531,-0.0213 0.2955,-0.66377 -2.9513,-0.74133 -0.5328,-0.01259 -0.7477,-0.21893 -0.478,-0.458208 0.3169,-0.280882 0.747,-0.300662 1.2132,-0.056 0.4663,0.244811 1.4852,0.21863 2.874,-0.0739 2.709,-0.570482 2.7589,-1.068883 0.1073,-1.085451 -1.8024,-0.0113 -1.8662,-0.0529 -0.5598,-0.364781 1.2302,-0.293809 1.0713,-0.35365 -0.961,-0.361781 -1.3395,-0.005 -2.8399,-0.1886 -3.3345,-0.40722 -0.4943,-0.218628 -1.672,-0.730887 -2.6169,-1.138399 -1.5452,-0.66635 -1.5941,-0.779121 -0.4872,-1.121259 0.9664,-0.29864 0.5366,-0.436962 -2.0001,-0.64376 -1.7772,-0.14486 -3.7895,-0.283631 -4.4718,-0.308391 -0.6825,-0.02479 -1.0636,-0.202199 -0.8469,-0.394319 0.2166,-0.192122 1.0617,-0.260792 1.8779,-0.152601 2.0142,0.267049 4.4279,-0.57762 3.4392,-1.203589 -0.5434,-0.34399 -0.1223,-0.549191 1.5587,-0.76022 2.7615,-0.346611 2.3715,-0.689331 -0.9141,-0.803421 -1.3177,-0.0459 -2.5205,-0.27857 -2.673,-0.51735 -0.1524,-0.23877 -0.7384,-0.43072 -1.3017,-0.42651 -0.5641,0.005 -0.8533,-0.23819 -0.6434,-0.53926 0.2094,-0.30079 -0.1602,-0.65407 -0.8227,-0.78505 -0.9514,-0.18825 -1.0982,-0.0651 -0.7005,0.58845 0.49,0.80485 0.4663,0.80758 -0.8958,0.10342 -0.8914,-0.46077 -1.0852,-0.76917 -0.534,-0.84984 1.1714,-0.17143 1.7827,-2.07578 0.6636,-2.06743 -0.4758,0.004 -1.5151,-0.24628 -2.3092,-0.55516 -1.4212,-0.55278 -1.4186,-0.57561 0.1595,-1.45263 1.5572,-0.86523 1.6613,-0.87121 3.6015,-0.20701 1.0988,0.37622 1.7682,0.48863 1.4871,0.24982 -0.3243,-0.27563 0.248,-0.44905 1.5664,-0.47486 1.9813,-0.0389 2.0001,-0.0566 0.4077,-0.38711 -1.1149,-0.23139 -1.6739,-0.68009 -1.6836,-1.35123 -0.01,-0.59433 -0.4354,-1.00166 -1.0448,-0.99712 -0.5666,0.005 -1.2256,-0.25872 -1.4644,-0.58436 -0.2392,-0.3256 -0.9164,-0.58841 -1.5052,-0.58402 -0.5891,0.005 -1.1918,-0.18123 -1.3396,-0.41248 -0.1476,-0.23124 -3.1503,-0.5398 -6.6726,-0.68566 -4.3404,-0.17976 -6.799595,-0.47285 -7.631395,-0.90958 -1.3558,-0.71191 -1.629,-0.73084 -8.5131,-0.59043 -2.6414,0.0539 -4.5843,-0.0216 -4.3182,-0.16751 0.5384,-0.29506 6.5003,-0.62424 16.373595,-0.90404 6.6255,-0.18771 9.9512,-0.67959 4.3112,-0.63751 -1.6949,0.0126 -3.0842,-0.16645 -3.0876,-0.39797 0,-0.273939 -1.7051,-0.339919 -4.870495,-0.18892 -3.6576,0.17458 -4.7795,0.1105 -4.5228,-0.257789 0.4258,-0.61093 -2.4161,-0.74753 -3.6696,-0.17637 -1.2602,0.574209 -4.3233,0.30523 -4.3333,-0.38048 0,-0.30918 -0.5085,-0.63152 -1.1197,-0.71635 -0.9884,-0.13706 -0.988,-0.10842 0,0.25846 0.8965,0.33171 0.7078,0.41691 -0.9621,0.43425 -1.1425,0.0114 -1.8915,-0.14316 -1.6645,-0.34446 0.2271,-0.20133 -0.5073,-0.55203 -1.6317,-0.77936 -1.6485,-0.33321 -0.8974,-0.38877 3.8743,-0.28658 4.1795,0.0896 5.2654,0.0283 3.6951,-0.20841 -1.5182,-0.22885 0.5516,-0.32216 6.5255,-0.29421 4.8121,0.0224 8.975195,0.20579 9.251495,0.40729 0.575,0.41962 3.6886,0.59257 5.2674,0.29266 1.2332,-0.23429 -1.81,-1.17633 -4.5822,-1.41848 -0.9274,-0.081 0.9158,-0.17955 4.0958,-0.21898 3.1802,-0.0396 5.9794,-0.18005 6.2209,-0.31238 0.2414,-0.13229 -0.5319,-0.246 -1.7185,-0.25248 -1.1866,-0.007 -2.8253,-0.15149 -3.6412,-0.32225 -1.2555,-0.26266 -1.0584,-0.35815 1.2799,-0.62053 1.5199,-0.17054 3.314,-0.20118 3.9868,-0.0681 1.0233,0.20244 1.0689,0.14438 0.2796,-0.35534 -0.5189,-0.32851 -2.1509,-0.60085 -3.6267,-0.60519 -2.1171,-0.006 -2.3721,-0.0777 -1.2087,-0.33908 1.1701,-0.26286 0.7104,-0.39702 -2.2282,-0.64997 -4.7763,-0.41116 -34.528995,-0.0176 -35.075395,0.46397 -0.2286,0.20158 -1.2466,0.45567 -2.2618,0.56465 -1.5634,0.16778 -1.4779,0.20369 0.558,0.23426 1.3224,0.0198 2.4021,-0.0979 2.3996,-0.26148 -0.01,-0.4683 7.6929,-0.122 8.3966,0.37767 0.4005,0.28421 0.4839,0.20676 0.2277,-0.21197 -0.3468,-0.56727 0.3425,-0.68379 4.9108,-0.83033 7.7009,-0.24701 18.225795,0.14511 19.250495,0.7172 0.6971,0.38935 0.1116,0.44382 -2.863,0.26638 -2.0568,-0.12266 -5.384295,-0.0758 -7.394995,0.10414 -3.4557,0.30931 -3.2828,0.33559 3.1606,0.48054 4.102395,0.0922 7.197995,0.35418 7.775595,0.65783 0.7834,0.41174 -0.4677,0.50889 -6.805995,0.52841 -4.2713,0.0132 -11.7571,0.23409 -16.635,0.49109 -11.0658,0.58292 -12.9453,0.60694 -11.4624,0.14641 0.6074,-0.18863 3.9122,-0.48015 7.3438,-0.64779 3.4317,-0.16764 6.4112,-0.39908 6.6212,-0.51426 0.6204,-0.34006 -15.6293,0.37391 -17.9638,0.78928 -1.1765,0.20933 -3.6224,0.39166 -5.4358,0.40519 -2.7426,0.0205 -3.2176,0.13259 -2.825,0.66751 0.4074,0.55564 -0.01,0.61703 -3.0579,0.45219 -6.7864,-0.36673 -9.972,-1.00143 -5.2048,-1.037 1.4581,-0.0109 3.2306,-0.14379 3.9386,-0.29524 0.9467,-0.20261 1.1292,-0.13532 0.6896,0.25458 -0.415,0.36794 -0.3151,0.43375 0.3263,0.21521 0.5083,-0.17317 2.6358,-0.47297 4.7275,-0.66622 l 3.8033,-0.35133 -3.3947,0.0988 c -2.8993,0.0845 -3.3468,-0.002 -3.0671,-0.59537 0.2892,-0.61332 -0.1565,-0.67092 -3.8227,-0.49393 -3.0794,0.14866 -4.152,0.0669 -4.1575,-0.31688 -0.01,-0.59693 6.7765,-1.19409 7.4139,-0.65248 0.2212,0.18809 1.6437,0.41526 3.161,0.50483 1.5906,0.0939 2.5772,0.009 2.33,-0.20153 -0.2357,-0.2004 0.01,-0.38543 0.539,-0.41116 0.5322,-0.0257 0.1336,-0.17329 -0.8857,-0.32793 -1.0192,-0.15465 -2.4733,-0.10815 -3.2311,0.10329 -0.923,0.25741 -1.2247,0.24815 -0.913,-0.0283 0.6481,-0.57476 -0.213,-0.77628 -4.3165,-1.00971 -2.9826,-0.1697 -3.4869,-0.10554 -3.1187,0.39622 0.3494,0.47634 -0.1986,0.60453 -2.6807,0.62735 -1.716,0.0158 -3.8672,0.14193 -4.7807,0.28036 -1.0326,0.1565 -1.6629,0.0753 -1.667,-0.21482 0,-0.25658 0.3045,-0.36609 0.6849,-0.24334 0.3805,0.1227 0.8788,0.0572 1.1076,-0.14565 0.2457,-0.21783 -1.3644,-0.26884 -3.9329,-0.12461 -5.7059,0.32036 -16.9797,-0.17308 -13.7781,-0.6031 l 2.2146,-0.29745 -2.2203,-0.0929 c -1.2211,-0.0511 -2.719,-0.0633 -3.3287,-0.027 -6.4657,0.38385 -17.177,0.52726 -16.3088,0.21838 0.7068,-0.2515 -0.8392,-0.35394 -4.6027,-0.30493 -3.6536,0.0477 -5.4991,0.21645 -5.1945,0.47539 0.2903,0.24682 -0.027,0.30287 -0.8225,0.14547 -0.7123,-0.14092 -3.2646,-0.24151 -5.6719,-0.22355 -3.5,0.0261 -4.3788,-0.0932 -4.386,-0.59563 -0.01,-0.34555 -0.4239,-0.54333 -0.9309,-0.4395 -0.507,0.10382 -0.8113,0.43347 -0.6763,0.73258 0.1967,0.43565 0.057,0.44655 -0.7018,0.0549 -0.5211,-0.26894 -2.6282,-0.48188 -4.6825,-0.47321 -2.5088,0.0112 -3.3719,-0.10158 -2.629,-0.34193 0.6083,-0.19674 2.5288,-0.22891 4.2679,-0.0715 1.739,0.15742 3.3385,0.12961 3.5544,-0.0619 0.2158,-0.19143 1.2714,-0.35462 2.3457,-0.36263 1.2663,-0.01 1.6981,-0.14856 1.2278,-0.3954 -0.8717,-0.45763 -21.2442,-0.57373 -23.3668,-0.13318 z m 12.6467,1.95417 c 5.8094,0.48354 10.7677,0.98682 11.0184,1.11844 0.5883,0.30887 -13.7842,6.61e-4 -15.7391,-0.33759 -1.8562,-0.32112 -2.3734,-0.36014 -5.4589,-0.41189 -2.1288,-0.0357 -2.3612,-0.13027 -1.583,-0.6439 0.5017,-0.33113 0.9769,-0.60256 1.056,-0.60314 0.079,-5.9e-4 4.8972,0.39455 10.7066,0.87808 z m -20.9462,0.99673 c -1.4003,0.58213 -3.3602,0.813 -3.3663,0.39656 0,-0.24014 2.9349,-0.94449 4.0541,-0.97181 0.4066,-0.0106 0.097,0.24894 -0.6878,0.57525 z m 11.8627,-0.008 c -0.2039,0.11176 -1.7983,0.35822 -3.5433,0.54769 -1.745,0.18949 -3.7533,0.46994 -4.463,0.62322 -0.9711,0.20974 -1.2933,0.0781 -1.3021,-0.53222 -0.01,-0.62484 0.5394,-0.84356 2.3901,-0.9532 2.912,-0.1725 7.4318,0.0329 6.9183,0.31451 z m 5.681,0.73864 c -0.9083,0.10095 -2.5722,0.11577 -3.6977,0.0336 -1.1255,-0.0828 -0.3824,-0.16545 1.6514,-0.18358 2.0337,-0.0182 2.9546,0.0496 2.0463,0.15058 z m 58.4351,-0.0581 c -0.4992,0.11246 -1.4975,0.12651 -2.2185,0.0315 -0.7211,-0.0953 -0.3127,-0.18723 0.9075,-0.20443 1.2202,-0.0165 1.8101,0.0607 1.311,0.17318 z m 17.1942,0.80198 c 0.2544,0.21636 0.111,0.39601 -0.3204,0.39922 -0.4308,0.003 -0.7857,-0.1727 -0.7889,-0.39094 0,-0.21825 0.1411,-0.3979 0.3204,-0.39924 0.1795,-0.002 0.5343,0.17458 0.7889,0.39096 z m -8.3162,0.32485 c -0.507,0.11387 -1.339,0.12008 -1.8489,0.0138 -0.5102,-0.10629 -0.095,-0.19946 0.9215,-0.20705 1.0169,-0.008 1.4342,0.0794 0.9274,0.19326 z m -90.0173,2.39285 c -0.2482,0.22012 -0.8478,0.40043 -1.3323,0.40071 -0.5293,7.14e-4 -0.4403,-0.15635 0.223,-0.39244 1.4137,-0.50324 1.6697,-0.50515 1.1094,-0.008 z m 118.7059,-0.48858 c -1.4266,0.50785 -2.2114,0.5137 -2.2187,0.0165 0,-0.21824 0.7432,-0.39965 1.6584,-0.40313 1.3457,-0.005 1.4528,0.0688 0.5603,0.38658 z m 3.9037,1.42425 c -0.5068,0.11386 -1.3387,0.12007 -1.8489,0.0138 -0.51,-0.10629 -0.095,-0.19946 0.9217,-0.20706 1.0168,-0.008 1.4342,0.0795 0.9272,0.19328 z m -119.6223,1.41859 c 0.2717,0.23097 -0.059,0.28663 -0.8153,0.13703 -0.8636,-0.17086 -1.0988,-0.10386 -0.7314,0.20841 0.3314,0.28171 0.059,0.46385 -0.7021,0.46952 -1.0216,0.008 -1.0807,-0.0983 -0.3315,-0.59279 1.0571,-0.69778 1.9322,-0.77313 2.5803,-0.2222 z m 126.2841,-1.0714 c -0.5067,0.11387 -1.3386,0.12007 -1.849,0.0138 -0.5099,-0.1063 -0.095,-0.19946 0.9218,-0.20704 1.0168,-0.008 1.4342,0.0793 0.9272,0.19325 z m -13.3063,0.49609 c -0.5069,0.11388 -1.3389,0.12008 -1.849,0.0138 -0.51,-0.10629 -0.095,-0.19948 0.9216,-0.20704 1.017,-0.008 1.4342,0.0794 0.9274,0.19323 z m 33.6574,1.31328 c -0.2438,0.133659 -0.8815,0.152519 -1.4172,0.0419 -0.5918,-0.12231 -0.4178,-0.21761 0.4435,-0.24306 0.7793,-0.0231 1.2175,0.0674 0.9737,0.20116 z m -145.4896,1.39827 c 0.01,0.37642 -2.2057,0.58262 -2.6053,0.24296 -0.2434,-0.2069 0.2428,-0.381321 1.0802,-0.38757 0.8376,-0.006 1.5238,0.0589 1.5251,0.14461 z m -1.6553,1.68352 c -0.2438,0.13365 -0.8816,0.15251 -1.4171,0.0419 -0.5918,-0.12232 -0.4179,-0.21758 0.4434,-0.24305 0.7793,-0.0231 1.2175,0.0674 0.9737,0.20117 z m 0.9558,1.099609 c 0,0.0858 -0.5127,0.266141 -1.1421,0.400821 -0.6562,0.14047 -0.954,0.0762 -0.6981,-0.15076 0.4288,-0.38028 1.8356,-0.57144 1.8402,-0.250061 z m 2.0769,4.036761 c -0.2438,0.13366 -0.8815,0.15252 -1.417,0.0419 -0.5918,-0.12232 -0.4179,-0.2176 0.4433,-0.24306 0.7794,-0.0231 1.2176,0.0674 0.9737,0.20116 z m -1.8217,0.83034 c -0.5068,0.11387 -1.3389,0.12008 -1.8489,0.0138 -0.51,-0.10629 -0.095,-0.19945 0.9216,-0.20705 1.0169,-0.008 1.4342,0.0795 0.9273,0.19325 z m 147.730295,-0.96782 c 1.3585,0.45867 0.1909,0.46738 -1.848995,0.0138 -0.9785,-0.21759 -1.1063,-0.34024 -0.3752,-0.36008 0.61,-0.0166 1.610795,0.13927 2.224195,0.346291 z m -147.835295,6.50268 c 0,0.0858 -0.4969,0.15969 -1.107,0.16424 -0.6102,0.005 -1.1119,-0.16469 -1.115,-0.37608 0,-0.2114 0.4952,-0.28529 1.1072,-0.16423 0.6119,0.12113 1.1136,0.29032 1.1148,0.37607 z m 164.424295,2.100761 c 1.2,0.73642 1.1994,0.775258 -0.01,0.685289 -1.2886,-0.0958 -1.6561,-0.330829 -1.6667,-1.06608 -0.01,-0.55993 0.2336,-0.50503 1.6774,0.380791 z m -3.3478,0.26829 c -0.2437,0.133649 -0.8814,0.152508 -1.417,0.0419 -0.5917,-0.12234 -0.4179,-0.217601 0.4435,-0.24307 0.7793,-0.0231 1.2175,0.0675 0.9735,0.20117 z m -175.709595,2.162178 c 0.929,0.62249 0.9031,0.636712 -0.277,0.15191 -1.2395,-0.50918 -1.6359,-0.832099 -1.0273,-0.836649 0.1535,-0.0021 0.7406,0.30699 1.3043,0.684749 z m -9.4161,0.785331 c 0.2578,0.351239 0.136,0.511429 -0.2853,0.375549 -0.404,-0.13032 -0.737,-0.405008 -0.74,-0.61037 -0.01,-0.570759 0.5237,-0.44895 1.0253,0.234821 z m 16.7533,1.64022 c 0,0.218239 -0.141,0.39791 -0.3204,0.399241 -0.1795,0.0021 -0.5345,-0.174601 -0.789,-0.390962 -0.2544,-0.216368 -0.1103,-0.39602 0.3204,-0.39924 0.4308,-0.003 0.7858,0.17272 0.789,0.390961 z m 1.5008,1.179349 c 1.1698,-0.009 2.3352,0.16116 2.5897,0.377531 0.9571,0.813509 -6.2896,0.0913 -8.1478,-0.812051 -0.4097,-0.199149 0.1947,-0.179279 1.3431,0.0441 1.1485,0.22344 3.0452,0.3991 4.215,0.390379 z m -4.3149,2.588831 c 2.1953,0.516711 3.4924,0.949561 2.8824,0.961891 -1.2951,0.02619 -7.4161,-1.359141 -7.4207,-1.679472 -0.01,-0.332089 0.249,-0.291939 4.5383,0.717581 z m 8.8051,1.34615 1.8535,0.30389 -1.8488,0.0258 c -1.0168,0.0136 -2.5165,-0.123119 -3.3327,-0.30453 l -1.4841,-0.329999 1.4793,7.94e-4 c 0.8136,-1.09e-4 2.3134,0.1374 3.3328,0.304551 z m 4.3833,1.77619 c 0.1811,0.0951 -0.641,0.208241 -1.8269,0.251479 -2.7177,0.099 -3.0719,0.0775 -6.2308,-0.378468 -2.1261,-0.30694 -1.6629,-0.344871 2.5671,-0.210211 2.8387,0.0904 5.3095,0.24212 5.4906,0.3372 z m 167.453195,1.967051 c -0.5067,0.113858 -1.3387,0.120078 -1.8489,0.01381 -0.5099,-0.106291 -0.096,-0.199462 0.9217,-0.207053 1.017,-0.008 1.4343,0.0795 0.9272,0.193252 z m -165.639595,2.822929 c -0.5069,0.113869 -1.3389,0.120071 -1.8489,0.01381 -0.5101,-0.10628 -0.095,-0.199451 0.9215,-0.207041 1.017,-0.008 1.4343,0.0793 0.9274,0.193251 z m 1.3535,4.093041 c 0.8789,0.0021 0.9081,0.0737 0.1408,0.341688 -0.9407,0.328692 -2.3001,0.349462 -8.0853,0.123592 l -2.7752,-0.108281 3.3239,-0.31034 c 1.8282,-0.170659 3.9905,-0.251711 4.8051,-0.18012 0.8146,0.0716 1.9805,0.131759 2.5907,0.13345 z m 5.2493,0.32639 c -0.5704,0.198998 -1.4847,0.273259 -2.0317,0.164999 -1.5685,-0.310301 -1.1736,-0.507849 1.035,-0.517721 1.4802,-0.007 1.7515,0.0894 0.9967,0.352682 z m 156.755495,1.242488 c -0.6069,0.216091 -1.7695,0.382821 -2.5833,0.370491 -1.219,-0.01839 -1.1547,-0.0808 0.3648,-0.353949 2.6083,-0.468802 3.5079,-0.475512 2.2185,-0.01651 z m 4.4483,4.986301 c 0.1705,0.0756 -1.3262,0.12869 -3.3266,0.118271 -2.0002,-0.0105 -3.0515,-0.10533 -2.3363,-0.211021 0.7154,-0.10569 1.1165,-0.34867 0.8916,-0.539991 -0.3568,-0.303239 3.9451,0.267222 4.7713,0.63272 z m -164.981695,6.768819 c -0.2438,0.133641 -0.8815,0.152501 -1.4171,0.0419 -0.5918,-0.12232 -0.4179,-0.217609 0.4434,-0.24306 0.7794,-0.0231 1.2175,0.0674 0.9737,0.20116 z m 44.0275,0.22202 c 2.0592,-0.01389 3.5156,0.158041 3.5193,0.414052 0,0.306919 -2.6881,0.386548 -9.0568,0.267859 -4.9847,-0.0929 -13.3911,-0.243959 -18.6809,-0.335669 -5.2898,-0.0918 -9.7856,-0.26198 -9.9907,-0.378341 -0.2051,-0.116361 6.6177,-0.151649 15.1616,-0.0784 8.544,0.0732 17.1154,0.123 19.0475,0.11049 z m 29.0826,-61.047089 c 0.9214,0.0881 2.2524,0.0746 2.9582,-0.0295 0.7057,-0.10456 -0.049,-0.17663 -1.6752,-0.16008 -1.627,0.0166 -2.2043,0.10209 -1.283,0.19015 z m -5.3574,0.94983 c 0.2545,0.21636 0.6096,0.39229 0.789,0.39094 0.1795,-0.002 0.3235,-0.18098 0.3203,-0.39922 0,-0.21824 -0.3581,-0.39416 -0.7888,-0.39095 -0.4308,0.003 -0.575,0.18286 -0.3205,0.39923 z m 18.4943,-0.14242 c -0.2559,0.22686 0.041,0.29119 0.6982,0.15077 1.2775,-0.27336 1.5077,-0.55952 0.4439,-0.55158 -0.3827,0.003 -0.8967,0.18322 -1.1421,0.40081 z m -58.1958,0.7097 c 0.5355,0.11061 1.1732,0.0917 1.4171,-0.0419 0.2438,-0.13366 -0.1945,-0.22421 -0.9737,-0.20116 -0.8613,0.0255 -1.0352,0.12081 -0.4434,0.24307 z m 51.4632,-0.32437 c 0.3648,0.31007 4.8855,0.1122 4.8808,-0.21371 0,-0.0843 -1.1866,-0.14452 -2.6343,-0.13373 -1.4478,0.0108 -2.4587,0.16715 -2.2465,0.34744 z m 32.8588,0.48906 c 0.5355,0.11059 1.1732,0.0917 1.4169,-0.0419 0.244,-0.13366 -0.194,-0.22421 -0.9736,-0.20118 -0.8612,0.0255 -1.0351,0.12083 -0.4433,0.24309 z m -5.5731,0.44234 c 0.721,0.0953 1.7192,0.0812 2.2185,-0.0315 0.4989,-0.11246 -0.092,-0.19036 -1.3109,-0.17315 -1.2201,0.0165 -1.6287,0.10919 -0.9076,0.20441 z m 5.748,2.07289 c -1.5955,0.29519 -1.4704,0.33149 0.9285,0.26926 1.5249,-0.0396 2.7706,-0.21401 2.7681,-0.38764 -0.01,-0.3799 -1.2121,-0.34126 -3.6966,0.11831 z m -10.7181,0.46709 c -0.248,0.22011 0.2339,0.39512 1.0715,0.38887 0.8375,-0.006 1.5201,-0.18993 1.517,-0.40817 0,-0.21824 -0.4853,-0.39322 -1.0714,-0.38884 -0.586,0.005 -1.2688,0.18802 -1.5171,0.40814 z m 4.2705,0.24317 c 0.7211,0.0953 1.7195,0.0812 2.2186,-0.0315 0.4991,-0.11246 -0.092,-0.19035 -1.311,-0.17316 -1.2201,0.0165 -1.6285,0.10919 -0.9076,0.20441 z m 30.1675,2.82812 c 0,0.0843 0.9841,0.22328 2.1842,0.30874 1.200195,0.0854 2.011695,0.0103 1.802995,-0.16682 -0.3711,-0.3154 -3.991595,-0.44428 -3.987195,-0.14192 z m -1.6047,0.92336 c 0.5355,0.11059 1.1732,0.0917 1.4171,-0.0419 0.2438,-0.13366 -0.1943,-0.22421 -0.9737,-0.20117 -0.8613,0.0254 -1.0352,0.12081 -0.4434,0.24307 z m 7.547595,0.86317 c 0,0.21825 0.4853,0.39321 1.0714,0.38884 0.5862,-0.005 1.2689,-0.18804 1.517,-0.40816 0.2483,-0.22012 -0.2338,-0.39511 -1.0714,-0.38886 -0.8374,0.006 -1.5202,0.18993 -1.517,0.40818 z m -6.563695,2.17785 c 0.1705,0.0782 1.0545,0.3437 1.9643,0.58979 1.389995,0.37608 1.583695,0.35156 1.212995,-0.15379 -0.242795,-0.33064 -1.126495,-0.59604 -1.964195,-0.5898 -0.8379,0.006 -1.3837,0.0754 -1.2131,0.15378 z m 15.336395,1.819369 c 0.869,0.550541 3.8763,1.204691 3.8711,0.842081 0,-0.0831 -1.0881,-0.44302 -2.4154,-0.79986 -2.0402,-0.5485 -2.2651,-0.55502 -1.4557,-0.0422 z m -164.107295,4.972571 c 0.5355,0.1106 1.1732,0.0917 1.417,-0.0419 0.2438,-0.13366 -0.1944,-0.22421 -0.9737,-0.20117 -0.8613,0.0254 -1.0352,0.12082 -0.4433,0.24307 z m 170.850595,2.68582 c 0.5099,0.1063 1.342,0.1001 1.8488,-0.0138 0.507,-0.11386 0.09,-0.20082 -0.9272,-0.19323 -1.0171,0.008 -1.4317,0.10066 -0.9216,0.20702 z m -186.135695,4.84703 c 10e-4,0.0823 0.5122,0.3717 1.1357,0.642929 0.9478,0.4123 1.0556,0.38694 0.6582,-0.154749 -0.4058,-0.55324 -1.8003,-0.93275 -1.7939,-0.48818 z m 193.424595,0.002 c 0.2588,0.219901 0.7787,0.29477 1.1556,0.166381 1.0209,-0.347801 0.8263,-0.584491 -0.4728,-0.574801 -0.6342,0.005 -0.9414,0.18852 -0.6828,0.40842 z m -1.4506,2.495939 c 2.0699,0.78649 4.8249,1.185291 4.8179,0.697402 -0.01,-0.527851 -0.6131,-0.691221 -3.7128,-1.002382 -2.3994,-0.240807 -2.4817,-0.218059 -1.1051,0.30498 z m -197.868795,3.9449 c 0.4288,0.43333 1.4835,1.229072 2.3437,1.768311 1.0674,0.669031 1.3166,0.7302 0.7845,0.192569 -0.4288,-0.433318 -1.4834,-1.229079 -2.3437,-1.768319 -1.0673,-0.66903 -1.3165,-0.730199 -0.7845,-0.192561 z m 207.383295,0.910781 c 0.7213,0.0953 1.7195,0.0812 2.2188,-0.0315 0.4989,-0.112461 -0.093,-0.190331 -1.3112,-0.173162 -1.2201,0.01659 -1.6286,0.109181 -0.9076,0.204412 z m 2.6719,6.71427 c 0.51,0.106281 1.342,0.100089 1.8487,-0.01381 0.507,-0.113861 0.089,-0.200829 -0.9272,-0.193231 -1.0168,0.008 -1.4315,0.100661 -0.9215,0.207021 z m 3.1443,0.0681 c 0,0.194892 0.5057,0.453421 1.1178,0.574471 0.6779,0.134141 1.1096,-0.008 1.1044,-0.36263 0,-0.3205 -0.5077,-0.57903 -1.1179,-0.574471 -0.6103,0.005 -1.1071,0.16773 -1.1043,0.36263 z m 2.2539,2.406721 c -0.6634,0.236109 -0.7523,0.392729 -0.2236,0.392441 0.4843,-5.3e-4 1.0841,-0.180592 1.3321,-0.400701 0.5603,-0.49688 0.3044,-0.49497 -1.1092,0.008 z m 3.895,-0.150831 c 0.721,0.0953 1.7193,0.0812 2.2182,-0.0315 0.4994,-0.112461 -0.093,-0.19032 -1.3107,-0.173161 -1.2202,0.01661 -1.6287,0.10919 -0.9075,0.20444 z m -9.1954,1.255202 c 0.5356,0.11058 1.1733,0.0917 1.417,-0.0419 0.2442,-0.13366 -0.1932,-0.224219 -0.9737,-0.20116 -0.8612,0.0254 -1.0351,0.120822 -0.4433,0.243062 z m 8.2691,0.241739 c 1.0162,0.292939 2.1352,0.434509 2.4871,0.314619 0.8842,-0.301199 -1.055,-0.889389 -2.8558,-0.866249 -1.3091,0.0172 -1.2668,0.0801 0.3687,0.55163 z m -13.8594,12.872241 -1.8392,0.593069 1.8449,-0.278029 c 2.0555,-0.309751 2.6083,-0.501531 2.1455,-0.74448 -0.172,-0.0901 -1.1395,0.103288 -2.1512,0.42944 z m -184.260295,3.38228 c 0.5356,0.110588 1.1733,0.0917 1.4171,-0.0419 0.2438,-0.13367 -0.1944,-0.224218 -0.9737,-0.201168 -0.8613,0.02551 -1.0351,0.120819 -0.4434,0.243078 z m 148.0766,0.60864 c 0.6132,0.206999 3.2778,0.339108 5.921295,0.293579 l 4.8065,-0.0828 -3.7023,-0.281461 c -5.531095,-0.42046 -8.394995,-0.391639 -7.025495,0.0707 z m 15.922195,-0.13783 c -0.3086,0.27377 0.9976,0.408448 3.7615,0.387829 4.9443,-0.0369 4.9983,-0.224811 0.1627,-0.564671 -2.146,-0.150818 -3.63,-0.0839 -3.9243,0.176861 z m -50.395995,0.714928 c 0.3586,0.30475 5.6376,0.110781 5.6329,-0.206989 0,-0.0852 -1.3529,-0.144909 -3.0042,-0.13259 -1.651,0.0123 -2.8338,0.165129 -2.6287,0.339579 z m 19.1317,-0.1891 c 0.7132,0.0944 1.8782,0.0857 2.5886,-0.01929 0.7103,-0.105191 0.1266,-0.18243 -1.297,-0.171821 -1.4235,0.01061 -2.0049,0.0967 -1.2916,0.19113 z m 41.435595,0.0892 c 0.7211,0.0953 1.7193,0.0812 2.2185,-0.0315 0.499,-0.112469 -0.092,-0.190338 -1.3111,-0.173159 -1.22,0.01651 -1.6287,0.10918 -0.9074,0.204409 z"
       id="path966-2-28"
       inkscape:connector-curvature="0"
       sodipodi:nodetypes="ccccccccccccccccccccccccccccccccccccccccccccccccccccccscccccccccccccccccccccccccccccccccccccsccccccccccsccccccccccccccccccccccccccccccccscccccccccccccccccccccccccccccccccccccccccccccccccccccccccccccccccccccccccccccccccccccccccccccccccccccccccccccccccccccccccccccccccccccccccccccccccccccccccccccccccsccccccccccccccccccccccccccccccccccccccccccccccccccccccccccccccccccccccccccccccccccccccccccccccccccccccccccccccccccccccccccccccccccccccccccccccccccccccccccccccccccccccccccccccccccccccccccccccccccccccccccccccccccccccccccccccccccccccccccccccccccccccccccccccccccccccccccccccccccccccccccccccccccccccccccccccccccccccccccccccccccccccccccccccccccccccccccccccccccccccccccccccccccccccccccccccccc"
       inkscape:export-xdpi="686.44"
       inkscape:export-ydpi="686.44"
       inkscape:export-filename="C:\Users\Jones Musik\Downloads\Cantopia-Logo 2.0.png" />
    <text
       xml:space="preserve"
       style="font-style:normal;font-variant:normal;font-weight:normal;font-stretch:normal;font-size:38.41405106px;line-height:1.25;font-family:'PT Serif';-inkscape-font-specification:'PT Serif';letter-spacing:0px;word-spacing:0px;fill:#f57700;fill-opacity:1;stroke:none;stroke-width:7.20263386"
       x="-168.01575"
       y="-52.918484"
       id="text828-8-5-2-9-9-7"
       inkscape:export-xdpi="686.44"
       inkscape:export-ydpi="686.44"
       inkscape:export-filename="C:\Users\Jones Musik\Downloads\Cantopia-Logo 2.0.png"><tspan
         sodipodi:role="line"
         id="tspan826-7-4-8-23-7-0"
         x="-168.01575"
         y="-52.918484"
         style="font-style:normal;font-variant:normal;font-weight:bold;font-stretch:normal;font-family:'Cabin Sketch';-inkscape-font-specification:'Cabin Sketch Bold';text-align:center;text-anchor:middle;fill:#d80000;fill-opacity:1;stroke-width:7.20263386">Cantopia</tspan></text>
    <text
       xml:space="preserve"
       style="font-style:normal;font-variant:normal;font-weight:normal;font-stretch:normal;font-size:19.43821144px;line-height:1.25;font-family:'PT Serif';-inkscape-font-specification:'PT Serif';letter-spacing:0px;word-spacing:0px;fill:#000000;fill-opacity:1;stroke:none;stroke-width:3.64466405"
       x="-167.81274"
       y="-32.340546"
       id="text828-6-0-0-3-1-9"
       inkscape:export-xdpi="686.44"
       inkscape:export-ydpi="686.44"
       inkscape:export-filename="C:\Users\Jones Musik\Downloads\Cantopia-Logo 2.0.png"><tspan
         sodipodi:role="line"
         id="tspan826-8-3-4-3-8-8"
         x="-167.81274"
         y="-32.340546"
         style="font-style:normal;font-variant:normal;font-weight:bold;font-stretch:normal;line-height:1.25;font-family:'Cabin Sketch';-inkscape-font-specification:'Cabin Sketch Bold';text-align:center;letter-spacing:0px;text-anchor:middle;fill:#195aa9;fill-opacity:1;stroke-width:3.64466405">settle down &amp; rise up</tspan></text>
  </g>
</svg>
