<?xml version="1.0" encoding="UTF-8" standalone="no"?>
<!-- Created with Inkscape (http://www.inkscape.org/) -->

<svg
   xmlns:dc="http://purl.org/dc/elements/1.1/"
   xmlns:cc="http://creativecommons.org/ns#"
   xmlns:rdf="http://www.w3.org/1999/02/22-rdf-syntax-ns#"
   xmlns:svg="http://www.w3.org/2000/svg"
   xmlns="http://www.w3.org/2000/svg"
   xmlns:sodipodi="http://sodipodi.sourceforge.net/DTD/sodipodi-0.dtd"
   xmlns:inkscape="http://www.inkscape.org/namespaces/inkscape"
   width="63.564335mm"
   height="11.613245mm"
   viewBox="0 0 225.22796 41.14929"
   id="svg4309"
   version="1.1"
   inkscape:version="0.92.3 (2405546, 2018-03-11)"
   sodipodi:docname="FluhrerGames-RotBlau - Durchsichtig - Benni.svg">
  <defs
     id="defs4311" />
  <sodipodi:namedview
     id="base"
     pagecolor="#ffffff"
     bordercolor="#666666"
     borderopacity="1.0"
     inkscape:pageopacity="0.0"
     inkscape:pageshadow="2"
     inkscape:zoom="2.8284271"
     inkscape:cx="108.34256"
     inkscape:cy="44.056966"
     inkscape:document-units="px"
     inkscape:current-layer="layer1"
     showgrid="false"
     fit-margin-top="0"
     fit-margin-left="0"
     fit-margin-right="0"
     fit-margin-bottom="0"
     inkscape:window-width="1538"
     inkscape:window-height="877"
     inkscape:window-x="54"
     inkscape:window-y="-8"
     inkscape:window-maximized="1" />
  <metadata
     id="metadata4314">
    <rdf:RDF>
      <cc:Work
         rdf:about="">
        <dc:format>image/svg+xml</dc:format>
        <dc:type
           rdf:resource="http://purl.org/dc/dcmitype/StillImage" />
        <dc:title></dc:title>
      </cc:Work>
    </rdf:RDF>
  </metadata>
  <g
     inkscape:label="Ebene 1"
     inkscape:groupmode="layer"
     id="layer1"
     transform="translate(-339.64749,-577.90122)">
    <path
       style="fill:#d80000;fill-opacity:1;stroke:none;stroke-width:0.07822658;stroke-miterlimit:4;stroke-dasharray:none;stroke-opacity:1"
       d="m 164.89062,18.007812 -18.21874,10.517579 v 21.035156 l 18.21874,-10.517578 z m -2.65429,4.621094 v 14.855469 l -12.86524,7.427734 V 30.056641 Z"
       transform="matrix(0.93749997,0,0,0.93749997,327.52654,572.5875)"
       id="rect884-2-1-3-6-3-8-8-3"
       inkscape:export-xdpi="1200.7498"
       inkscape:export-ydpi="1200.7498"
       inkscape:connector-curvature="0" />
    <path
       style="fill:#195aa9;fill-opacity:1;stroke:none;stroke-width:0.07822658;stroke-miterlimit:4;stroke-dasharray:none;stroke-opacity:1"
       d="m 145.76172,5.6679688 -18.2168,10.5175782 18.2168,10.517578 18.2168,-10.517578 z m 0.0234,3.1035156 12.86523,7.4277346 -12.86523,7.425781 -12.86524,-7.425781 z"
       transform="matrix(0.93749997,0,0,0.93749997,327.52654,572.5875)"
       id="rect884-2-1-3-6-0-0-1-51"
       inkscape:export-xdpi="1200.7498"
       inkscape:export-ydpi="1200.7498"
       inkscape:connector-curvature="0" />
    <g
       aria-label="FLUHRER"
       transform="matrix(4.8848956,0,0,5.4641168,-505.06737,-4299.4354)"
       style="font-style:normal;font-weight:normal;font-size:5.33333349px;line-height:1.25;font-family:sans-serif;letter-spacing:0px;word-spacing:0px;fill:#d80000;fill-opacity:1;stroke:none"
       id="flowRoot1230-0-0-9-65">
      <path
         d="m 173.58268,898.28373 h -0.65885 v -3.55469 h 2.24739 v 0.54948 h -1.58854 v 0.97136 h 1.25 v 0.53385 h -1.25 z"
         style="font-style:normal;font-variant:normal;font-weight:normal;font-stretch:normal;font-family:'Franklin Gothic Medium';-inkscape-font-specification:'Franklin Gothic Medium, ';letter-spacing:0px;fill:#d80000;fill-opacity:1"
         id="path823"
         inkscape:connector-curvature="0" />
      <path
         d="m 177.81966,898.28373 h -2.1875 v -3.55469 h 0.67448 v 2.97396 h 1.51302 z"
         style="font-style:normal;font-variant:normal;font-weight:normal;font-stretch:normal;font-family:'Franklin Gothic Medium';-inkscape-font-specification:'Franklin Gothic Medium, ';letter-spacing:0px;fill:#d80000;fill-opacity:1"
         id="path825"
         inkscape:connector-curvature="0" />
      <path
         d="m 180.72852,894.72904 v 2.28386 q 0,0.46354 -0.10417,0.71354 -0.10417,0.25 -0.40365,0.43229 -0.29687,0.17969 -0.72656,0.17969 -0.4349,0 -0.71615,-0.15625 -0.27864,-0.15625 -0.40104,-0.42709 -0.12239,-0.27343 -0.12239,-0.69531 v -2.33073 h 0.65364 v 2.28386 q 0,0.46875 0.19532,0.61718 0.19791,0.14584 0.45833,0.14584 0.29948,0 0.47917,-0.15625 0.17968,-0.15886 0.17968,-0.60677 v -2.28386 z"
         style="font-style:normal;font-variant:normal;font-weight:normal;font-stretch:normal;font-family:'Franklin Gothic Medium';-inkscape-font-specification:'Franklin Gothic Medium, ';letter-spacing:0px;fill:#d80000;fill-opacity:1"
         id="path827"
         inkscape:connector-curvature="0" />
      <path
         d="m 184.10352,898.28373 h -0.64063 v -1.54427 h -1.35677 v 1.54427 h -0.64062 v -3.55469 h 0.64062 v 1.46094 h 1.35677 v -1.46094 h 0.64063 z"
         style="font-style:normal;font-variant:normal;font-weight:normal;font-stretch:normal;font-family:'Franklin Gothic Medium';-inkscape-font-specification:'Franklin Gothic Medium, ';letter-spacing:0px;fill:#d80000;fill-opacity:1"
         id="path829"
         inkscape:connector-curvature="0" />
      <path
         d="m 187.653,898.28373 h -0.67709 l -0.55208,-1.46094 h -0.90104 v 1.46094 h -0.64063 v -3.55469 h 1.54167 q 0.64323,0 0.94531,0.29167 0.30208,0.28906 0.30208,0.75 0,0.6849 -0.64062,0.94271 z m -2.13021,-1.97396 h 0.79687 q 0.34636,0 0.51563,-0.14583 0.16927,-0.14583 0.16927,-0.40104 0,-0.23438 -0.16667,-0.37761 -0.16667,-0.14583 -0.46614,-0.14583 h -0.84896 z"
         style="font-style:normal;font-variant:normal;font-weight:normal;font-stretch:normal;font-family:'Franklin Gothic Medium';-inkscape-font-specification:'Franklin Gothic Medium, ';letter-spacing:0px;fill:#d80000;fill-opacity:1"
         id="path831"
         inkscape:connector-curvature="0" />
      <path
         d="m 190.61914,898.28373 h -2.30989 v -3.55469 h 2.28645 v 0.52865 h -1.64583 v 0.96354 h 1.32292 v 0.51563 h -1.32292 v 0.99479 h 1.66927 z"
         style="font-style:normal;font-variant:normal;font-weight:normal;font-stretch:normal;font-family:'Franklin Gothic Medium';-inkscape-font-specification:'Franklin Gothic Medium, ';letter-spacing:0px;fill:#d80000;fill-opacity:1"
         id="path833"
         inkscape:connector-curvature="0" />
      <path
         d="m 193.94466,898.28373 h -0.67708 l -0.55209,-1.46094 h -0.90104 v 1.46094 h -0.64062 v -3.55469 h 1.54166 q 0.64323,0 0.94532,0.29167 0.30208,0.28906 0.30208,0.75 0,0.6849 -0.64062,0.94271 z m -2.13021,-1.97396 h 0.79688 q 0.34635,0 0.51562,-0.14583 0.16927,-0.14583 0.16927,-0.40104 0,-0.23438 -0.16666,-0.37761 -0.16667,-0.14583 -0.46615,-0.14583 h -0.84896 z"
         style="font-style:normal;font-variant:normal;font-weight:normal;font-stretch:normal;font-family:'Franklin Gothic Medium';-inkscape-font-specification:'Franklin Gothic Medium, ';letter-spacing:0px;fill:#d80000;fill-opacity:1"
         id="path835"
         inkscape:connector-curvature="0" />
    </g>
    <path
       style="fill:#195aa9;fill-opacity:1;stroke:none;stroke-width:0.07822658;stroke-miterlimit:4;stroke-dasharray:none;stroke-opacity:1"
       d="m 126.63281,18.007812 v 21.035157 l 18.21875,10.517578 V 28.525391 Z m 2.67774,4.609376 12.86328,7.427734 v 14.855469 l -12.86328,-7.427735 z"
       transform="matrix(0.93749997,0,0,0.93749997,327.52654,572.5875)"
       id="rect884-2-1-3-6-9-9-27"
       inkscape:export-xdpi="1200.7498"
       inkscape:export-ydpi="1200.7498"
       inkscape:connector-curvature="0" />
    <g
       aria-label="GAMES"
       transform="matrix(4.8119283,0,0,5.382563,-345.55328,-4226.1726)"
       style="font-style:normal;font-weight:normal;font-size:5.33333349px;line-height:1.25;font-family:sans-serif;letter-spacing:0px;word-spacing:0px;fill:#195aa9;fill-opacity:1;stroke:none"
       id="flowRoot1230-0-6-7-0-0">
      <path
         d="m 175.62174,896.46602 v 1.81771 h -0.28385 l -0.19531,-0.47917 q -0.3099,0.53386 -0.96094,0.53386 -0.72656,0 -1.08594,-0.55209 -0.35677,-0.55208 -0.35677,-1.27864 0,-0.76823 0.39844,-1.29948 0.40104,-0.53385 1.11979,-0.53385 0.53646,0 0.88281,0.3125 0.34636,0.30989 0.4375,0.77343 l -0.55729,0.099 q -0.15625,-0.65104 -0.74739,-0.65104 -0.37761,0 -0.61719,0.30729 -0.23698,0.30729 -0.23698,0.94531 0,1.34636 0.84375,1.34636 0.32812,0 0.54167,-0.22656 0.21614,-0.22657 0.21614,-0.59896 h -0.73437 v -0.51563 z"
         style="font-style:normal;font-variant:normal;font-weight:normal;font-stretch:normal;font-family:'Franklin Gothic Medium';-inkscape-font-specification:'Franklin Gothic Medium, ';letter-spacing:0px;fill:#195aa9;fill-opacity:1"
         id="path838"
         inkscape:connector-curvature="0" />
      <path
         d="m 179.13997,898.28373 h -0.68489 l -0.28386,-0.84635 h -1.36718 l -0.27865,0.84635 h -0.54687 l 1.17968,-3.55469 h 0.78907 z m -1.14062,-1.35937 -0.51823,-1.58594 -0.51823,1.58594 z"
         style="font-style:normal;font-variant:normal;font-weight:normal;font-stretch:normal;font-family:'Franklin Gothic Medium';-inkscape-font-specification:'Franklin Gothic Medium, ';letter-spacing:0px;fill:#195aa9;fill-opacity:1"
         id="path840"
         inkscape:connector-curvature="0" />
      <path
         d="M 183.05664,898.28373 H 182.403 v -3.11198 l -0.98438,3.11198 h -0.33594 l -0.98958,-3.11198 v 3.11198 h -0.52344 v -3.55469 h 1.00261 l 0.74479,2.28907 0.73177,-2.28907 h 1.00781 z"
         style="font-style:normal;font-variant:normal;font-weight:normal;font-stretch:normal;font-family:'Franklin Gothic Medium';-inkscape-font-specification:'Franklin Gothic Medium, ';letter-spacing:0px;fill:#195aa9;fill-opacity:1"
         id="path842"
         inkscape:connector-curvature="0" />
      <path
         d="m 186.15039,898.28373 h -2.30989 v -3.55469 h 2.28645 v 0.52865 h -1.64583 v 0.96354 h 1.32292 v 0.51563 h -1.32292 v 0.99479 h 1.66927 z"
         style="font-style:normal;font-variant:normal;font-weight:normal;font-stretch:normal;font-family:'Franklin Gothic Medium';-inkscape-font-specification:'Franklin Gothic Medium, ';letter-spacing:0px;fill:#195aa9;fill-opacity:1"
         id="path844"
         inkscape:connector-curvature="0" />
      <path
         d="m 186.33268,897.42696 0.6224,-0.13281 q 0.11198,0.52864 0.85937,0.52864 0.34115,0 0.52344,-0.13541 0.1849,-0.13542 0.1849,-0.33594 0,-0.14583 -0.0833,-0.26823 -0.0833,-0.125 -0.35677,-0.19531 l -0.67969,-0.17709 q -0.34895,-0.0911 -0.51562,-0.20573 -0.16667,-0.11718 -0.26823,-0.32812 -0.099,-0.21094 -0.099,-0.45052 0,-0.47656 0.35417,-0.76302 0.35417,-0.28906 0.90625,-0.28906 0.45833,0 0.81771,0.20052 0.36198,0.20052 0.46093,0.5677 l -0.60937,0.15105 q -0.14063,-0.40365 -0.65625,-0.40365 -0.29948,0 -0.45833,0.125 -0.15625,0.125 -0.15625,0.31771 0,0.30469 0.49479,0.42708 l 0.60416,0.15104 q 0.54948,0.13802 0.73698,0.40886 0.1875,0.26823 0.1875,0.59375 0,0.52344 -0.39583,0.82552 -0.39323,0.29948 -1.02083,0.29948 -0.52865,0 -0.92709,-0.22136 -0.39583,-0.22135 -0.52604,-0.6901 z"
         style="font-style:normal;font-variant:normal;font-weight:normal;font-stretch:normal;font-family:'Franklin Gothic Medium';-inkscape-font-specification:'Franklin Gothic Medium, ';letter-spacing:0px;fill:#195aa9;fill-opacity:1"
         id="path846"
         inkscape:connector-curvature="0" />
    </g>
  </g>
</svg>
